<?xml version="1.0" encoding="UTF-8"?>
<svg version="1.1" xmlns="http://www.w3.org/2000/svg" width="1024" height="1024">
<path d="M0 0 C1.24177002 0.00410889 2.48354004 0.00821777 3.76293945 0.01245117 C23.41097939 0.13257922 41.52293106 3.02409953 60.5 8 C61.76328125 8.32750244 63.0265625 8.65500488 64.328125 8.99243164 C72.25627259 11.12161346 79.70516266 13.75535768 87.1875 17.125 C88.04931885 17.50672363 88.9111377 17.88844727 89.79907227 18.28173828 C119.83124003 31.76960447 149.14068393 51.42928881 170.1875 77.125 C171.12709811 78.22959733 172.06725699 79.33371777 173.0078125 80.4375 C186.39300902 96.32778182 197.63906306 113.68796016 207.1875 132.125 C207.53474121 132.78290527 207.88198242 133.44081055 208.23974609 134.11865234 C217.73589636 152.28973778 224.39539369 172.5778415 227.79370117 192.7902832 C228.07576735 194.46257017 228.38657239 196.13010867 228.71606445 197.79370117 C230.47196263 207.45153116 230.52560971 217.02303156 230.50317383 226.8059082 C230.50003237 229.658111 230.52348401 232.5092541 230.54882812 235.36132812 C230.61314228 253.32001322 228.02286679 270.35691609 223.625 287.75 C223.37130646 288.75966827 223.37130646 288.75966827 223.11248779 289.78973389 C219.58926605 303.68790258 214.81073473 316.93344087 209.1875 330.125 C208.78805176 331.0752002 208.38860352 332.02540039 207.97705078 333.00439453 C201.76603983 347.65790214 194.24480025 361.41549153 186.1875 375.125 C185.67928711 375.99930664 185.17107422 376.87361328 184.64746094 377.77441406 C177.3703522 390.28535215 169.50416445 402.28350915 161.1875 414.125 C160.15361071 415.60544422 159.11975596 417.08591257 158.0859375 418.56640625 C148.82549789 431.78774382 139.30141104 444.795249 129.40820312 457.54980469 C127.39067067 460.15322857 125.38318336 462.76436163 123.375 465.375 C122.96942871 465.90109863 122.56385742 466.42719727 122.14599609 466.96923828 C119.76771891 470.05722941 117.40472611 473.15607909 115.0546875 476.265625 C109.58572722 483.48810425 104.0471932 490.58896945 98.13867188 497.45751953 C94.61687796 501.56756068 91.29894447 505.80412784 88.02441406 510.11254883 C84.82770086 514.31310029 81.55637077 518.4477994 78.25 522.5625 C74.35014319 527.41832618 70.46925291 532.28750375 66.625 537.1875 C66.17374756 537.76250244 65.72249512 538.33750488 65.25756836 538.92993164 C63.00585634 541.8011367 60.75767465 544.67507211 58.51171875 547.55078125 C53.67594943 553.73396497 48.78371841 559.86255539 43.8125 565.9375 C39.32839063 571.42073537 34.96678604 576.98060234 30.6875 582.625 C26.2711183 588.44439813 21.78391239 594.19646081 17.1875 599.875 C16.65962891 600.53048828 16.13175781 601.18597656 15.58789062 601.86132812 C5.88528128 613.77528761 5.88528128 613.77528761 -0.1875 614.5625 C-8.16237514 613.60001507 -13.92385088 603.2204098 -18.8125 597.125 C-20.84123904 594.51193159 -22.85457172 591.88819105 -24.85693359 589.25488281 C-28.19112045 584.8871879 -31.64162649 580.62428039 -35.125 576.375 C-39.69873715 570.79193297 -44.1416806 565.12769823 -48.5 559.375 C-53.05903702 553.35802448 -57.75520871 547.50555011 -62.625 541.73828125 C-65.11041267 538.76910075 -67.48273467 535.72836249 -69.84375 532.66015625 C-75.89738602 524.86489875 -82.10448531 517.18393348 -88.375 509.5625 C-92.25390007 504.84036078 -96.03752404 500.04905293 -99.80371094 495.23706055 C-102.3902214 491.93262648 -104.99253708 488.64307896 -107.625 485.375 C-113.21851503 478.40320611 -118.68067834 471.32794284 -124.15527344 464.26269531 C-125.58314771 462.42084688 -127.01375006 460.5811688 -128.4453125 458.7421875 C-140.44841143 443.25304003 -151.92395414 427.4169317 -162.8125 411.125 C-163.39612305 410.25423828 -163.97974609 409.38347656 -164.58105469 408.48632812 C-172.12622708 397.19086854 -179.36419408 385.7325557 -186.3125 374.0625 C-187.28183472 372.44118164 -187.28183472 372.44118164 -188.27075195 370.78710938 C-192.82645633 363.06193722 -196.89358391 355.18660723 -200.8125 347.125 C-201.34496338 346.04158325 -201.34496338 346.04158325 -201.88818359 344.9362793 C-207.11190221 334.24058908 -211.59026283 323.24909889 -215.8125 312.125 C-216.08980957 311.40006348 -216.36711914 310.67512695 -216.65283203 309.92822266 C-234.42191617 262.69436618 -236.42669452 204.44609295 -216.76342773 157.46826172 C-215.83326231 155.17616216 -215.0403291 152.87711248 -214.28125 150.5234375 C-207.58421701 129.9912705 -196.01686778 111.31151158 -183.23730469 94.05371094 C-181.93448282 92.29012411 -180.65780307 90.51028797 -179.3828125 88.7265625 C-173.55292826 80.77414759 -166.75959012 73.78598994 -159.8125 66.8125 C-158.89871582 65.89315674 -157.98493164 64.97381348 -157.04345703 64.02661133 C-115.64458548 23.06075139 -58.14771317 -0.23260662 0 0 Z " fill="#232A30" transform="translate(500.8125,199.875)"/>
<path d="M0 0 C1.95292969 -0.0299707 1.95292969 -0.0299707 3.9453125 -0.06054688 C10.98878298 -0.05695327 16.02879069 -0.04734944 21.625 4.4375 C24.18010547 7.3150429 24.99971606 9.08682948 24.99681091 12.92681885 C25.00356842 13.82107071 25.01032593 14.71532257 25.01728821 15.63667297 C25.00956894 16.61025253 25.00184967 17.58383209 24.99389648 18.58691406 C24.9995462 20.13396278 24.9995462 20.13396278 25.00531006 21.71226501 C25.01174616 23.95212139 25.01140911 26.19200507 25.00512505 28.43186188 C24.99602511 31.97988649 25.0062276 35.52738144 25.02174377 39.07537842 C25.06186804 49.16303665 25.06304861 59.25065417 25.06079102 69.33837891 C25.06073986 75.50929394 25.07993986 81.67992439 25.11012459 87.85076141 C25.12093891 91.34065716 25.10882351 94.8300071 25.09629822 98.31988525 C25.10520559 100.47009822 25.11528101 102.62030677 25.12670898 104.77050781 C25.11696548 105.73599045 25.10722198 106.70147308 25.09718323 107.69621277 C25.15919905 113.55977262 25.87372081 118.71784225 29.625 123.4375 C33.43242615 125.83199802 37.23381853 126.11436805 41.625 125.4375 C46.6272609 122.98356069 48.60302763 120.56277214 50.625 115.4375 C51.05512495 112.27047448 51.06260287 109.13657313 51.05737305 105.94384766 C51.0675647 105.00662872 51.07775635 104.06940979 51.08825684 103.10379028 C51.11834405 100.0196532 51.12764637 96.93582695 51.13671875 93.8515625 C51.15356858 91.70778372 51.17171923 89.56401481 51.19111633 87.42025757 C51.23858929 81.78805625 51.2684163 76.15589492 51.29455566 70.52355957 C51.3243747 64.77213647 51.37090047 59.02085111 51.41601562 53.26953125 C51.50201807 41.99225959 51.5693771 30.71495956 51.625 19.4375 C66.90762091 22.25902908 81.21745107 35.42231852 92.09667969 45.96044922 C93.69991262 47.50989958 95.3225937 49.0373964 96.9453125 50.56640625 C104.24967049 57.54605559 110.27968632 64.82006588 115.625 73.4375 C116.04410645 74.10330078 116.46321289 74.76910156 116.89501953 75.45507812 C121.97442007 83.57763552 126.42749663 91.53268339 129.61328125 100.609375 C130.49854884 103.08402262 131.51812394 105.33978715 132.6875 107.6875 C134.59799783 111.8952361 135.68754269 116.20698278 136.75 120.6875 C136.98795288 121.68765137 136.98795288 121.68765137 137.23071289 122.70800781 C141.3259042 140.8447773 140.625 156.1193403 140.625 175.4375 C48.225 175.4375 -44.175 175.4375 -139.375 175.4375 C-139.375 133.7351552 -139.375 133.7351552 -134.75 118.125 C-134.49057617 117.24038086 -134.23115234 116.35576172 -133.96386719 115.44433594 C-121.35321761 74.02628004 -92.52797116 41.53789443 -55.30712891 20.3137207 C-53.375 19.4375 -53.375 19.4375 -50.375 19.4375 C-50.36953156 21.23701866 -50.36953156 21.23701866 -50.36395264 23.07289124 C-50.32698574 34.38758816 -50.26919422 45.70201336 -50.19109726 57.01650333 C-50.15161523 62.83319782 -50.11943013 68.64974076 -50.10400391 74.46655273 C-50.08884237 80.0818041 -50.05440507 85.69663882 -50.00669098 91.31170464 C-49.99187212 93.45222792 -49.9839587 95.59281068 -49.98311615 97.73338509 C-49.98074634 100.73554856 -49.9536645 103.73656077 -49.92089844 106.73852539 C-49.9259288 107.6203801 -49.93095917 108.5022348 -49.93614197 109.41081238 C-49.83816358 115.22632411 -48.7723114 118.67482685 -45.375 123.4375 C-41.32364559 126.13840294 -38.13156623 126.08797059 -33.375 125.4375 C-28.34784827 123.01701954 -26.37352828 120.57919494 -24.375 115.4375 C-23.95490499 111.9956862 -23.97825631 108.58493719 -24.00610352 105.12109375 C-24.00233704 104.09597687 -23.99857056 103.07085999 -23.99468994 102.01467896 C-23.98826773 99.79504306 -23.98857784 97.57537966 -23.99487495 95.35574341 C-24.00399262 91.84171181 -23.99375353 88.32821291 -23.97825623 84.81420898 C-23.9381718 74.82569186 -23.93695619 64.83721698 -23.93920898 54.84863281 C-23.93926007 48.73377456 -23.92010234 42.61920438 -23.88987541 36.50442505 C-23.87904506 33.04434668 -23.89118317 29.58481667 -23.90370178 26.12475586 C-23.89479785 24.0011338 -23.88472364 21.87751621 -23.87329102 19.75390625 C-23.88790627 18.31363571 -23.88790627 18.31363571 -23.90281677 16.8442688 C-23.84066835 11.05936771 -23.17141868 7.87242059 -19.375 3.4375 C-13.65097308 -1.08590361 -6.96090858 -0.03768208 0 0 Z " fill="#F0F5F7" transform="translate(500.375,292.5625)"/>
<path d="M0 0 C0.7120459 0.11794922 1.4240918 0.23589844 2.15771484 0.35742188 C46.75883433 8.27358949 89.84148021 40.43885008 115.97265625 76.5859375 C132.80339191 100.72325022 145.43029432 127.76075541 150 157 C150.30357422 158.53720703 150.30357422 158.53720703 150.61328125 160.10546875 C154.30877689 180.7449376 151.97805228 201.60719212 148 222 C147.34 222 146.68 222 146 222 C144.88671875 220.390625 144.88671875 220.390625 143.6875 218.25 C140.86635767 213.53977417 137.53535094 211.02356729 133 208 C132.70703125 205.42822266 132.70703125 205.42822266 132.8125 202.1640625 C132.83812012 200.96467041 132.86374023 199.76527832 132.89013672 198.52954102 C132.9263916 197.24104248 132.96264648 195.95254395 133 194.625 C133.58628516 148.97013687 116.22741019 107.756263 86 74 C84.34786739 72.31892493 82.68355725 70.64960315 81 69 C76 64 76 64 74.51123047 62.4387207 C70.1751146 57.95386074 65.57046215 54.18622703 60.5 50.5625 C59.32630859 49.72054077 59.32630859 49.72054077 58.12890625 48.86157227 C44.94400164 39.57524308 27.89645262 29.26591894 11.375 28.8125 C7.32985534 28.48662145 5.78522956 27.14485355 3.0625 24.1875 C2.51722656 23.50042969 1.97195313 22.81335938 1.41015625 22.10546875 C-5.2761414 16.26444049 -13.50292102 15.38221126 -22.0546875 15.3984375 C-23.0774881 15.38986725 -24.1002887 15.381297 -25.15408325 15.37246704 C-27.30370136 15.36105328 -29.45339665 15.35992583 -31.60302734 15.36865234 C-34.86041303 15.3749717 -38.11415597 15.32797991 -41.37109375 15.27734375 C-57.15041305 15.08532342 -57.15041305 15.08532342 -71 22 C-72.55992745 23.62271864 -72.55992745 23.62271864 -73.75 25.1875 C-76.67661996 28.5077589 -80.19507335 28.80577678 -84.375 29.4375 C-109.87317384 33.32341228 -131.8461719 50.68994138 -150 68 C-150.79148437 68.73863281 -151.58296875 69.47726562 -152.3984375 70.23828125 C-174.6167694 91.56008397 -189.92169472 121.29416128 -197.8125 150.8125 C-198.00739014 151.53993408 -198.20228027 152.26736816 -198.40307617 153.0168457 C-200.82659394 162.59876632 -202.14324046 172.01963175 -202.09765625 181.8984375 C-202.0971376 182.67013779 -202.09661896 183.44183807 -202.09608459 184.23692322 C-202.0902899 187.42736697 -202.08088735 190.61554917 -202.00366211 193.80517578 C-201.70970424 207.3436448 -201.70970424 207.3436448 -204.97583008 211.53637695 C-207.3984375 213.38671875 -207.3984375 213.38671875 -209.81396484 214.75268555 C-213.01401438 216.57857934 -214.22661972 218.83875689 -216 222 C-216.66 221.67 -217.32 221.34 -218 221 C-218.81640625 218.0859375 -218.81640625 218.0859375 -219.5625 214.375 C-219.93568359 212.56128906 -219.93568359 212.56128906 -220.31640625 210.7109375 C-228.4445429 166.58676711 -214.3871783 118.78356941 -189.3125 82.3125 C-158.74249533 38.9509812 -115.47318492 8.09809644 -62.78125 -1.421875 C-41.90393147 -4.61386172 -20.76753596 -3.51178049 0 0 Z " fill="#ECF1F4" transform="translate(536,251)"/>
<path d="M0 0 C107.25 0 214.5 0 325 0 C325 6.22447215 324.68124651 7.39844187 321 12 C318.29152022 14.31664927 316.1074638 15.46601768 312.640625 16.24609375 C311.7846875 16.44154785 310.92875 16.63700195 310.046875 16.83837891 C309.12390625 17.03608887 308.2009375 17.23379883 307.25 17.4375 C306.280625 17.65067871 305.31125 17.86385742 304.3125 18.08349609 C293.27496677 20.45550444 282.15985876 22.30973625 271 24 C270.1037793 24.13647949 269.20755859 24.27295898 268.28417969 24.41357422 C256.82775955 26.1305516 245.33574801 27.44433342 233.8125 28.625 C232.62640137 28.74818604 231.44030273 28.87137207 230.21826172 28.99829102 C210.16943228 30.98016396 190.17105341 31.18799931 170.04492188 31.18530273 C166.95664528 31.18522214 163.86851917 31.19207112 160.78027344 31.20581055 C132.00809502 31.33148522 103.43772599 30.34804371 74.875 26.625 C73.12322845 26.40349701 71.37143772 26.18214563 69.61962891 25.9609375 C57.00846037 24.34812123 44.4704231 22.49087944 32 20 C30.98695801 19.8040625 29.97391602 19.608125 28.93017578 19.40625 C25.76200595 18.78891747 22.599325 18.14898785 19.4375 17.5 C17.99866455 17.21576172 17.99866455 17.21576172 16.53076172 16.92578125 C10.14486443 15.56040196 5.87829995 13.78235661 1.125 9.1875 C0 7 0 7 0 0 Z " fill="#DCE3E6" transform="translate(339,491)"/>
<path d="M0 0 C32.92883737 -0.33563117 65.78242442 0.21749108 98.69155884 1.30012512 C101.5396724 1.39325133 104.38786485 1.48353206 107.23608398 1.57336426 C179.97391608 3.89806442 179.97391608 3.89806442 196.59375 11.08251953 C195.59375 14.08251953 195.59375 14.08251953 193.79589844 15.22338867 C189.93377649 16.73013004 185.9403988 17.02900178 181.84375 17.52001953 C180.31717773 17.70733643 180.31717773 17.70733643 178.75976562 17.8984375 C162.50567561 19.78532534 146.1541576 20.82220269 129.83178711 21.92858887 C127.76829141 22.07051469 125.70539865 22.22113554 123.64257812 22.37255859 C111.80111331 23.19750383 99.95932946 23.38276859 88.09375 23.58251953 C84.02076499 23.65204879 79.94785556 23.72451749 75.875 23.80126953 C74.85519043 23.82037384 73.83538086 23.83947815 72.78466797 23.85916138 C65.84967355 24.0021333 58.92840395 24.2784818 52 24.60595703 C38.88106593 25.20491666 25.76689517 25.23519842 12.63671875 25.21289062 C8.65362437 25.20617539 4.67059537 25.21283617 0.6875 25.21923828 C-32.85441272 25.23078111 -66.3494702 24.16664517 -99.84570312 22.46289062 C-103.23347865 22.29071962 -106.62145453 22.12417708 -110.00976562 21.96289062 C-126.78753954 21.16371614 -143.55795077 20.3010301 -160.29173279 18.82125473 C-162.30599975 18.64330291 -164.3210232 18.47397893 -166.33605957 18.30496216 C-173.7329053 17.60516266 -179.73507664 16.41810621 -186.40625 13.08251953 C-186.07625 12.09251953 -185.74625 11.10251953 -185.40625 10.08251953 C-176.44598932 6.77393445 -166.78116038 5.77405292 -157.31640625 5.05908203 C-156.27427979 4.97686905 -155.23215332 4.89465607 -154.15844727 4.80995178 C-150.90833181 4.55815501 -147.65760489 4.31773968 -144.40625 4.08251953 C-143.41954315 4.01110748 -142.4328363 3.93969543 -141.41622925 3.86611938 C-99.4827425 0.8972642 -57.54486762 0.38805013 -15.52537537 0.13033009 C-10.35010844 0.09781194 -5.17508615 0.05389842 0 0 Z " fill="#D9E0E3" transform="translate(496.40625,829.91748046875)"/>
<path d="M0 0 C102.96 0 205.92 0 312 0 C312 0.33 312 0.66 312 1 C311.05125 1.268125 310.1025 1.53625 309.125 1.8125 C306.03833516 2.69709297 302.95478763 3.59173928 299.875 4.5 C298.66457031 4.85578125 298.66457031 4.85578125 297.4296875 5.21875 C294.97607051 5.96733082 294.97607051 5.96733082 292.58984375 7.0234375 C285.21370383 9.8047874 276.82520748 10.30687088 269 10 C269 10.66 269 11.32 269 12 C265.03056146 12.54803141 261.05918123 13.07938684 257.0859375 13.59912109 C255.11877554 13.85929116 253.15307801 14.13046564 251.1875 14.40234375 C223.16589849 18.1332554 194.96122919 18.32840019 166.74609375 18.26074219 C161.96000126 18.24934867 157.17413121 18.25614079 152.38804626 18.2676096 C95.44151171 18.38378131 95.44151171 18.38378131 68 13.5625 C66.66141956 13.33950264 65.32262836 13.11776724 63.98364258 12.8972168 C60.31823327 12.28806064 56.65852945 11.64930996 53 11 C52.08653809 10.83822266 51.17307617 10.67644531 50.23193359 10.50976562 C46.85938536 9.90515548 43.494799 9.27459508 40.1328125 8.61328125 C37.11625215 8.02275759 34.09385393 7.50797893 31.0625 7 C27.80801118 6.42142421 24.84651781 5.6489862 21.75 4.5 C15.42504263 2.22209031 8.64524571 1.74419748 2 1 C2 1.99 2 2.98 2 4 C1.34 4 0.68 4 0 4 C0 2.68 0 1.36 0 0 Z " fill="#F8FBFC" transform="translate(339,491)"/>
<path d="M0 0 C1.26457031 -0.04350586 1.26457031 -0.04350586 2.5546875 -0.08789062 C8.54342198 -0.14833593 11.96822309 0.84138604 16.875 4.3125 C19.31150033 7.22058104 19.83009325 8.90833927 20.25 12.6875 C19.81193816 16.92209777 18.83192493 19.54918283 16.875 23.3125 C16.215 23.6425 15.555 23.9725 14.875 24.3125 C15.89160441 27.04951187 16.95896756 29.44813991 18.5 31.9375 C19.875 34.3125 19.875 34.3125 19.875 37.3125 C17.895 37.9725 15.915 38.6325 13.875 39.3125 C10.59757902 36.21223691 7.94395163 33.34151106 5.875 29.3125 C5.875 28.6525 5.875 27.9925 5.875 27.3125 C3.235 27.3125 0.595 27.3125 -2.125 27.3125 C-1.91875 28.570625 -1.7125 29.82875 -1.5 31.125 C-0.91164331 34.7139758 -0.95882585 35.06323878 -3.125 38.3125 C-6.1875 38.5625 -6.1875 38.5625 -9.125 38.3125 C-10.91330448 36.52419552 -10.25348711 34.11668848 -10.26394653 31.73608398 C-10.2619223 30.95692627 -10.25989807 30.17776855 -10.2578125 29.375 C-10.25876923 28.579729 -10.25972595 27.78445801 -10.26071167 26.96508789 C-10.26139343 25.2804354 -10.25953943 23.59578029 -10.25537109 21.91113281 C-10.25002275 19.32350803 -10.25531619 16.73605684 -10.26171875 14.1484375 C-10.26105797 12.51562461 -10.2597768 10.88281184 -10.2578125 9.25 C-10.25983673 8.47084229 -10.26186096 7.69168457 -10.26394653 6.88891602 C-10.22781433 -1.33491268 -7.27464863 0.08119027 0 0 Z " fill="#F5F9FB" transform="translate(521.125,555.6875)"/>
<path d="M0 0 C2.91686762 4.82316694 2.13091413 9.50160634 2 15 C6.62 15 11.24 15 16 15 C15.95875 12.89625 15.9175 10.7925 15.875 8.625 C15.8046875 5.0390625 15.8046875 5.0390625 16 2 C18 0 18 0 21.0625 -0.1875 C24 0 24 0 25 1 C25.08858646 3.73894085 25.11523479 6.4525327 25.09765625 9.19140625 C25.0962413 10.01124496 25.09482635 10.83108368 25.09336853 11.67576599 C25.08775289 14.30471382 25.07519779 16.93357773 25.0625 19.5625 C25.05748701 21.34049357 25.05292376 23.11848846 25.04882812 24.89648438 C25.03777839 29.26435545 25.02050331 33.63216348 25 38 C19.23291016 39.13134766 19.23291016 39.13134766 17.13671875 37.94921875 C14.74683526 33.85110239 15.85278835 28.56356118 16 24 C11.05 24 6.1 24 1 24 C1.061875 26.10375 1.12375 28.2075 1.1875 30.375 C1.29296875 33.9609375 1.29296875 33.9609375 1 37 C-2 39 -2 39 -4.625 38.75 C-5.40875 38.5025 -6.1925 38.255 -7 38 C-8.55977064 34.88045872 -8.12104126 31.57040616 -8.09765625 28.1484375 C-8.0962413 27.37440582 -8.09482635 26.60037415 -8.09336853 25.80288696 C-8.08776403 23.32688558 -8.07521083 20.85097412 -8.0625 18.375 C-8.05748558 16.69791797 -8.05292257 15.02083453 -8.04882812 13.34375 C-8.03779315 9.22913194 -8.02052554 5.11458122 -8 1 C-5.29120665 -0.35439668 -2.99066732 -0.06501451 0 0 Z " fill="#EEF1F3" transform="translate(427,556)"/>
<path d="M0 0 C2.58203125 -0.37231445 2.58203125 -0.37231445 5.8125 -0.36328125 C7.54886719 -0.36231445 7.54886719 -0.36231445 9.3203125 -0.36132812 C10.53460938 -0.34521484 11.74890625 -0.32910156 13 -0.3125 C14.21429688 -0.31572266 15.42859375 -0.31894531 16.6796875 -0.32226562 C25.73318452 -0.26681548 25.73318452 -0.26681548 28 2 C28.125 5.125 28.125 5.125 28 8 C25.23434618 8.92188461 23.61716298 9.11785222 20.76953125 9.09765625 C19.96708984 9.09443359 19.16464844 9.09121094 18.33789062 9.08789062 C17.08782227 9.07532227 17.08782227 9.07532227 15.8125 9.0625 C14.5450293 9.05573242 14.5450293 9.05573242 13.25195312 9.04882812 C11.16793845 9.03705403 9.08396023 9.0191189 7 9 C7 10.98 7 12.96 7 15 C11.95 15 16.9 15 22 15 C22.33 17.31 22.66 19.62 23 22 C22 23 22 23 18.62109375 23.09765625 C17.22652923 23.09098369 15.83198257 23.07902532 14.4375 23.0625 C13.72658203 23.05798828 13.01566406 23.05347656 12.28320312 23.04882812 C10.52209987 23.03700864 8.76103964 23.01907263 7 23 C7 25.31 7 27.62 7 30 C7.89307861 29.98428955 7.89307861 29.98428955 8.80419922 29.96826172 C11.49442343 29.92676051 14.18458037 29.90069296 16.875 29.875 C17.81214844 29.85824219 18.74929688 29.84148438 19.71484375 29.82421875 C21.05869141 29.81455078 21.05869141 29.81455078 22.4296875 29.8046875 C23.25710449 29.79421387 24.08452148 29.78374023 24.93701172 29.77294922 C27 30 27 30 29 32 C28.625 35.125 28.625 35.125 28 38 C24.04903022 38.04939662 20.0981797 38.08571755 16.14697266 38.10986328 C14.1408864 38.12488107 12.13488676 38.15028981 10.12890625 38.17578125 C8.87207031 38.18222656 7.61523438 38.18867187 6.3203125 38.1953125 C5.15773926 38.20578613 3.99516602 38.21625977 2.79736328 38.22705078 C0 38 0 38 -2 36 C-2.19954194 33.52586821 -2.27989475 31.16612482 -2.265625 28.69140625 C-2.26753845 27.96888168 -2.2694519 27.24635712 -2.27142334 26.50193787 C-2.27278504 24.97288668 -2.26908964 23.44382393 -2.26074219 21.91479492 C-2.25005751 19.57509316 -2.2606295 17.23616193 -2.2734375 14.89648438 C-2.2721156 13.41145664 -2.26955257 11.92642938 -2.265625 10.44140625 C-2.26967346 9.7413295 -2.27372192 9.04125275 -2.27789307 8.31996155 C-2.24257654 4.65626704 -2.08995623 3.13493434 0 0 Z " fill="#F3F6F8" transform="translate(469,556)"/>
<path d="M0 0 C1.21042969 -0.00128906 2.42085937 -0.00257813 3.66796875 -0.00390625 C4.94285156 -0.00003906 6.21773437 0.00382813 7.53125 0.0078125 C9.44357422 0.00201172 9.44357422 0.00201172 11.39453125 -0.00390625 C13.21017578 -0.00197266 13.21017578 -0.00197266 15.0625 0 C16.18205078 0.00112793 17.30160156 0.00225586 18.45507812 0.00341797 C21.03125 0.1328125 21.03125 0.1328125 22.03125 1.1328125 C22.07217937 3.46578683 22.07366723 5.79986475 22.03125 8.1328125 C19.734713 9.281081 18.44811833 9.24842425 15.8984375 9.23046875 C15.09277344 9.22724609 14.28710938 9.22402344 13.45703125 9.22070312 C12.61527344 9.21232422 11.77351562 9.20394531 10.90625 9.1953125 C9.63201172 9.18854492 9.63201172 9.18854492 8.33203125 9.18164062 C6.23174091 9.16984124 4.1314867 9.15190556 2.03125 9.1328125 C2.03125 11.1128125 2.03125 13.0928125 2.03125 15.1328125 C6.65125 15.1328125 11.27125 15.1328125 16.03125 15.1328125 C16.03125 17.7728125 16.03125 20.4128125 16.03125 23.1328125 C11.41125 23.1328125 6.79125 23.1328125 2.03125 23.1328125 C2.03125 25.4428125 2.03125 27.7528125 2.03125 30.1328125 C2.63187256 30.12757568 3.23249512 30.12233887 3.85131836 30.11694336 C6.55711838 30.09623236 9.26290177 30.08317125 11.96875 30.0703125 C12.91427734 30.06193359 13.85980469 30.05355469 14.83398438 30.04492188 C16.18266602 30.04008789 16.18266602 30.04008789 17.55859375 30.03515625 C18.80757446 30.02730103 18.80757446 30.02730103 20.08178711 30.01928711 C22.03125 30.1328125 22.03125 30.1328125 23.03125 31.1328125 C23.15625 34.1328125 23.15625 34.1328125 23.03125 37.1328125 C21.20090945 38.96315305 18.29913008 38.26324047 15.84375 38.265625 C14.58820312 38.26691406 13.33265625 38.26820313 12.0390625 38.26953125 C11.38196289 38.26743652 10.72486328 38.2653418 10.04785156 38.26318359 C8.03963665 38.25783484 6.03164541 38.26312941 4.0234375 38.26953125 C2.76789062 38.26824219 1.51234375 38.26695312 0.21875 38.265625 C-0.94269531 38.26449707 -2.10414063 38.26336914 -3.30078125 38.26220703 C-5.96875 38.1328125 -5.96875 38.1328125 -6.96875 37.1328125 C-7.06970564 34.47825057 -7.10845998 31.85026074 -7.1015625 29.1953125 C-7.10251923 28.4000415 -7.10347595 27.60477051 -7.10446167 26.78540039 C-7.10514343 25.1007479 -7.10328943 23.41609279 -7.09912109 21.73144531 C-7.09377275 19.14382053 -7.09906619 16.55636934 -7.10546875 13.96875 C-7.10480797 12.33593711 -7.1035268 10.70312434 -7.1015625 9.0703125 C-7.10358673 8.29115479 -7.10561096 7.51199707 -7.10769653 6.70922852 C-7.07810528 -0.025854 -6.60134722 0.00665075 0 0 Z " fill="#F5F8FA" transform="translate(561.96875,555.8671875)"/>
<path d="M0 0 C3.10310165 1.55155083 3.2596231 3.8925383 4.375 7.125 C11.33600506 28.59352027 11 49.07384048 11 72 C-81.4 72 -173.8 72 -269 72 C-269 71.67 -269 71.34 -269 71 C-178.91 71 -88.82 71 4 71 C4.94503662 43.61146937 4.94503662 43.61146937 -0.0546875 14.3828125 C-1.1840967 11.5359546 -1.23286126 9.30157558 -1.1875 6.25 C-1.18105469 5.28578125 -1.17460938 4.3215625 -1.16796875 3.328125 C-1 1 -1 1 0 0 Z " fill="#CDD3D7" transform="translate(630,396)"/>
<path d="M0 0 C1.9453125 -0.29296875 1.9453125 -0.29296875 4.125 -0.1875 C5.40375 -0.125625 6.6825 -0.06375 8 0 C8.43082886 0.95253662 8.43082886 0.95253662 8.87036133 1.92431641 C10.1831972 4.8250938 11.49783263 7.72505223 12.8125 10.625 C13.26431641 11.62402344 13.71613281 12.62304688 14.18164062 13.65234375 C15.99583301 17.65151235 17.80941618 21.62625771 19.8046875 25.5390625 C21.13881574 28.28579711 21.41872534 29.98517754 21 33 C19 35 19 35 16.625 35.0625 C12.63198039 33.44627778 11.86877825 30.80677052 10 27 C3.565 27.495 3.565 27.495 -3 28 C-3.99 30.475 -3.99 30.475 -5 33 C-5.66 33.66 -6.32 34.32 -7 35 C-10.125 34.625 -10.125 34.625 -13 34 C-12.44896433 28.8348705 -11.21114533 24.42151235 -9.1875 19.625 C-8.91905273 18.97305664 -8.65060547 18.32111328 -8.37402344 17.64941406 C-2.8164088 4.22461321 -2.8164088 4.22461321 0 0 Z " fill="#F4F6F9" transform="translate(476,610)"/>
<path d="M0 0 C4.269375 -0.020625 8.53875 -0.04125 12.9375 -0.0625 C14.95991821 -0.07615601 14.95991821 -0.07615601 17.02319336 -0.09008789 C18.6030603 -0.09383423 18.6030603 -0.09383423 20.21484375 -0.09765625 C21.84087524 -0.10551147 21.84087524 -0.10551147 23.49975586 -0.11352539 C26 0 26 0 27 1 C27.25 3.4375 27.25 3.4375 27 6 C23.95318939 8.03120707 23.39881676 8.24659875 19.98828125 8.1953125 C19.23095703 8.18886719 18.47363281 8.18242188 17.69335938 8.17578125 C16.51483398 8.15064453 16.51483398 8.15064453 15.3125 8.125 C14.51521484 8.11597656 13.71792969 8.10695313 12.89648438 8.09765625 C10.930861 8.07411585 8.96539225 8.03824547 7 8 C7.33 9.65 7.66 11.3 8 13 C14.93 13.495 14.93 13.495 22 14 C22 15.98 22 17.96 22 20 C19.11584117 21.44207941 16.58278472 21.09394887 13.375 21.0625 C12.18648437 21.05347656 10.99796875 21.04445313 9.7734375 21.03515625 C8.85820313 21.02355469 7.94296875 21.01195312 7 21 C7 22.98 7 24.96 7 27 C7.85549438 26.99214478 7.85549438 26.99214478 8.72827148 26.98413086 C11.29800323 26.96341779 13.86771747 26.9503581 16.4375 26.9375 C17.78424805 26.92493164 17.78424805 26.92493164 19.15820312 26.91210938 C20.01220703 26.90888672 20.86621094 26.90566406 21.74609375 26.90234375 C22.93223267 26.89448853 22.93223267 26.89448853 24.14233398 26.88647461 C26 27 26 27 27 28 C27.125 30.5 27.125 30.5 27 33 C26 34 26 34 23.49975586 34.11352539 C22.41573486 34.10828857 21.33171387 34.10305176 20.21484375 34.09765625 C19.16159912 34.09515869 18.10835449 34.09266113 17.02319336 34.09008789 C15.67491455 34.08098389 14.32663574 34.07187988 12.9375 34.0625 C8.668125 34.041875 4.39875 34.02125 0 34 C0 22.78 0 11.56 0 0 Z " fill="#F6FAFB" transform="translate(542,610)"/>
<path d="M0 0 C3.125 1.3125 3.125 1.3125 5 3 C5.33 3.99 5.66 4.98 6 6 C5.01 7.485 5.01 7.485 4 9 C0.04 8.67 -3.92 8.34 -8 8 C-8.33 9.32 -8.66 10.64 -9 12 C-8.25234375 12.17015625 -7.5046875 12.3403125 -6.734375 12.515625 C-5.74953125 12.75796875 -4.7646875 13.0003125 -3.75 13.25 C-2.77546875 13.48203125 -1.8009375 13.7140625 -0.796875 13.953125 C2.98110721 15.36723007 5.19683545 17.3936709 7 21 C7.38482057 25.07909806 7.44121857 27.29089873 5.25 30.8125 C1.78320158 34.18299846 -0.98627486 35.29899645 -5.8125 35.375 C-10.98950464 35.26778393 -13.89426001 34.14482212 -18 31 C-19.0625 28.9375 -19.0625 28.9375 -19 27 C-18.01 25.515 -18.01 25.515 -17 24 C-12.25 24.875 -12.25 24.875 -10 26 C-7.6670134 26.04022391 -5.33293334 26.04320247 -3 26 C-2.34 24.68 -1.68 23.36 -1 22 C-1.99580078 21.83564453 -1.99580078 21.83564453 -3.01171875 21.66796875 C-12.1179771 20.03283039 -12.1179771 20.03283039 -16 17 C-18.44605705 13.33091443 -18.83946402 10.26381231 -18 6 C-12.70473995 -0.54940059 -8.02317808 -0.65991508 0 0 Z " fill="#F4F7F9" transform="translate(449,610)"/>
<path d="M0 0 C1.12019531 -0.00128906 2.24039063 -0.00257813 3.39453125 -0.00390625 C4.57402344 -0.00003906 5.75351562 0.00382813 6.96875 0.0078125 C8.73798828 0.00201172 8.73798828 0.00201172 10.54296875 -0.00390625 C12.22326172 -0.00197266 12.22326172 -0.00197266 13.9375 0 C14.97326172 0.00112793 16.00902344 0.00225586 17.07617188 0.00341797 C19.46875 0.1328125 19.46875 0.1328125 20.46875 1.1328125 C20.50955783 3.13239614 20.51129356 5.13326504 20.46875 7.1328125 C17.15880287 8.78778606 13.47752 8.23365585 9.84375 8.1953125 C8.64105469 8.18854492 8.64105469 8.18854492 7.4140625 8.18164062 C5.43225994 8.16984418 3.45049567 8.15190855 1.46875 8.1328125 C1.46875 10.1128125 1.46875 12.0928125 1.46875 14.1328125 C2.46777344 14.12121094 3.46679688 14.10960937 4.49609375 14.09765625 C5.78644531 14.08863281 7.07679688 14.07960938 8.40625 14.0703125 C9.69402344 14.05871094 10.98179687 14.04710937 12.30859375 14.03515625 C15.46875 14.1328125 15.46875 14.1328125 16.46875 15.1328125 C16.50938832 16.79898365 16.511471 18.46669345 16.46875 20.1328125 C13.58459117 21.57489191 11.05153472 21.22676137 7.84375 21.1953125 C6.65523437 21.18628906 5.46671875 21.17726563 4.2421875 21.16796875 C3.32695313 21.15636719 2.41171875 21.14476562 1.46875 21.1328125 C1.50355469 21.97585938 1.53835938 22.81890625 1.57421875 23.6875 C1.60128906 24.78320312 1.62835937 25.87890625 1.65625 27.0078125 C1.69105469 28.09835937 1.72585938 29.18890625 1.76171875 30.3125 C1.66503906 31.24320313 1.56835938 32.17390625 1.46875 33.1328125 C-1.53125 35.1328125 -1.53125 35.1328125 -3.65625 34.8203125 C-5.53125 34.1328125 -5.53125 34.1328125 -6.53125 33.1328125 C-6.6320312 30.76882782 -6.67098215 28.43469939 -6.6640625 26.0703125 C-6.66501923 25.36382568 -6.66597595 24.65733887 -6.66696167 23.92944336 C-6.66764333 22.43310457 -6.66579005 20.93676283 -6.66162109 19.44042969 C-6.65627257 17.14251093 -6.66156651 14.84478764 -6.66796875 12.546875 C-6.66730797 11.09635373 -6.6660268 9.64583259 -6.6640625 8.1953125 C-6.66608673 7.5036499 -6.66811096 6.8119873 -6.67019653 6.09936523 C-6.63982972 -0.04074599 -5.98920302 0.00652216 0 0 Z " fill="#F1F5F7" transform="translate(512.53125,609.8671875)"/>
<path d="M0 0 C3.1875 0.3125 3.1875 0.3125 5.625 1.9375 C7.1875 4.3125 7.1875 4.3125 7 7.1875 C6.11054451 10.60848267 5.08817304 12.08116627 2.75 14.6875 C0.06340056 17.8266807 -2.25526731 20.94684419 -4.3203125 24.515625 C-4.74513916 25.24475098 -5.16996582 25.97387695 -5.60766602 26.72509766 C-6.44195422 28.18152603 -7.25566507 29.64996794 -8.04663086 31.13037109 C-9.18306818 33.09560316 -10.18822031 34.72480837 -11.8125 36.3125 C-15.93563122 36.95191607 -17.83957143 36.96922679 -21.3125 34.625 C-22.8125 32.3125 -22.8125 32.3125 -22.69140625 30.1484375 C-21.47642305 26.22809172 -19.4561576 23.06543423 -17.25 19.625 C-16.80470947 18.92109131 -16.35941895 18.21718262 -15.90063477 17.49194336 C-5.02722529 0.55858059 -5.02722529 0.55858059 0 0 Z " fill="#263236" transform="translate(413.8125,359.6875)"/>
<path d="M0 0 C3.95796778 2.03743489 6.40442828 4.13096197 8.0390625 8.265625 C8.2265625 12.078125 8.2265625 12.078125 8.0390625 15.265625 C7.7090625 15.265625 7.3790625 15.265625 7.0390625 15.265625 C6.3790625 13.285625 5.7190625 11.305625 5.0390625 9.265625 C4.3790625 9.265625 3.7190625 9.265625 3.0390625 9.265625 C3.0390625 11.245625 3.0390625 13.225625 3.0390625 15.265625 C2.4203125 15.389375 1.8015625 15.513125 1.1640625 15.640625 C-1.15214582 16.13759856 -1.15214582 16.13759856 -2.9609375 18.265625 C-5.30859375 18.27734375 -5.30859375 18.27734375 -8.0234375 17.953125 C-8.92191406 17.85386719 -9.82039062 17.75460937 -10.74609375 17.65234375 C-12.9609375 17.265625 -12.9609375 17.265625 -13.9609375 16.265625 C-16.90613634 6.21185722 -16.90613634 6.21185722 -15.03515625 2.359375 C-10.74623885 -1.61741095 -5.34267041 -2.00084071 0 0 Z " fill="#F2F5F7" transform="translate(532.9609375,556.734375)"/>
<path d="M0 0 C3.40728883 4.29630651 5.44845233 8.96302886 7.6875 13.9375 C8.10322266 14.83146484 8.51894531 15.72542969 8.94726562 16.64648438 C9.33978516 17.51466797 9.73230469 18.38285156 10.13671875 19.27734375 C10.49467529 20.06359131 10.85263184 20.84983887 11.22143555 21.65991211 C12.0949379 24.28534956 12.28488299 26.251124 12 29 C10 31 10 31 7.625 31.0625 C4.14570329 29.65421324 3.60675386 27.83577607 1.98046875 24.58984375 C1.07411765 22.77395314 1.07411765 22.77395314 -1.25 22.0625 C-1.8275 22.041875 -2.405 22.02125 -3 22 C-3.33 20.35 -3.66 18.7 -4 17 C-3.01 16.67 -2.02 16.34 -1 16 C-3.64 16 -6.28 16 -9 16 C-8.60246179 14.53633658 -8.18118616 13.0791065 -7.75 11.625 C-7.51796875 10.81289063 -7.2859375 10.00078125 -7.046875 9.1640625 C-5.75976102 6.50338658 -4.634216 6.17076266 -2 5 C-0.71745356 2.46229997 -0.71745356 2.46229997 0 0 Z " fill="#F1F3F5" transform="translate(485,614)"/>
<path d="M0 0 C2.203125 1.19140625 2.203125 1.19140625 4 3 C4.2421875 5.41796875 4.2421875 5.41796875 3.875 8.1875 C3.68357422 9.64349609 3.68357422 9.64349609 3.48828125 11.12890625 C2.85317071 14.86335621 2.13886615 18.38242516 1 22 C-2.01324195 23.50662097 -4.68286377 23.17770373 -8 23 C-10 21 -10 21 -10.265625 18.20703125 C-10.21130221 6.40540541 -10.21130221 6.40540541 -8 1 C-5.19084526 -0.40457737 -3.11189466 -0.24895157 0 0 Z " fill="#263136" transform="translate(390,410)"/>
<path d="M0 0 C0.33 0 0.66 0 1 0 C1 12.21 1 24.42 1 37 C0.34 37 -0.32 37 -1 37 C-1.33 37.66 -1.66 38.32 -2 39 C-2.70125 38.835 -3.4025 38.67 -4.125 38.5 C-7.13888194 37.97584662 -9.94713625 37.92900317 -13 38 C-13 37.34 -13 36.68 -13 36 C-18.28 36 -23.56 36 -29 36 C-29 35.67 -29 35.34 -29 35 C-21.08 34.505 -21.08 34.505 -13 34 C-12.01 30.535 -12.01 30.535 -11 27 C-10.01 27.66 -9.02 28.32 -8 29 C-7.38125 28.175 -6.7625 27.35 -6.125 26.5 C-5.42375 25.675 -4.7225 24.85 -4 24 C-3.34 24 -2.68 24 -2 24 C-1.04831317 21.14493951 -0.8099054 19.09062718 -0.68359375 16.11328125 C-0.64169922 15.17548828 -0.59980469 14.23769531 -0.55664062 13.27148438 C-0.51732422 12.29501953 -0.47800781 11.31855469 -0.4375 10.3125 C-0.39431641 9.32443359 -0.35113281 8.33636719 -0.30664062 7.31835938 C-0.20058346 4.87904454 -0.09852286 2.43962887 0 0 Z " fill="#1B2428" transform="translate(509,560)"/>
<path d="M0 0 C0.99 0.33 1.98 0.66 3 1 C3 1.66 3 2.32 3 3 C3.66 3.66 4.32 4.32 5 5 C4.34 5 3.68 5 3 5 C3.47767854 9.09438748 3.96553423 13.00991776 5 17 C5 17.99 5 18.98 5 20 C-0.94 20 -6.88 20 -13 20 C-13 17.69 -13 15.38 -13 13 C-8.38 13 -3.76 13 1 13 C1 10.36 1 7.72 1 5 C-0.98 4.34 -2.96 3.68 -5 3 C-4.360625 2.690625 -3.72125 2.38125 -3.0625 2.0625 C-1.06389179 1.1654837 -1.06389179 1.1654837 0 0 Z " fill="#2E3538" transform="translate(577,566)"/>
<path d="M0 0 C0.66 0 1.32 0 2 0 C2 0.66 2 1.32 2 2 C3.3303125 2.2475 3.3303125 2.2475 4.6875 2.5 C9.17090209 4.53021981 11.01659011 7.56804427 13 12 C13 12.99 13 13.98 13 15 C11.02 15.66 9.04 16.32 7 17 C3.72257902 13.89973691 1.06895163 11.02901106 -1 7 C-1 6.34 -1 5.68 -1 5 C-5.455 5.495 -5.455 5.495 -10 6 C-10 4.68 -10 3.36 -10 2 C-9.34 2 -8.68 2 -8 2 C-8 2.66 -8 3.32 -8 4 C-5.06556598 3.73343428 -5.06556598 3.73343428 -2 3 C-1.34 2.01 -0.68 1.02 0 0 Z " fill="#EDF1F4" transform="translate(528,578)"/>
<path d="M0 0 C2.99332739 0.9977758 3.94766315 1.7522025 6 4 C6.99 3.67 7.98 3.34 9 3 C11.48046875 3.55859375 11.48046875 3.55859375 14.1875 4.4375 C15.08855469 4.72496094 15.98960937 5.01242187 16.91796875 5.30859375 C17.60503906 5.53675781 18.29210937 5.76492188 19 6 C18.125 9.875 18.125 9.875 17 11 C10.53846154 11.35897436 10.53846154 11.35897436 7 9 C5.68 9 4.36 9 3 9 C2.23043864 11.34533951 2.23043864 11.34533951 2 14 C3.33378575 15.8354799 3.33378575 15.8354799 5 17 C2.39417629 17.93065133 1.35801776 18.14917407 -1.25 17.0625 C-2.11625 16.5365625 -2.11625 16.5365625 -3 16 C-2.5020163 12.26512223 -2.12508244 10.18762365 0 7 C-0.66 6.67 -1.32 6.34 -2 6 C-2 5.01 -2 4.02 -2 3 C-0.02 3.495 -0.02 3.495 2 4 C2 3.34 2 2.68 2 2 C1.34 2 0.68 2 0 2 C0 1.34 0 0.68 0 0 Z " fill="#283035" transform="translate(429,626)"/>
<path d="M0 0 C0.66 0.33 1.32 0.66 2 1 C2.33 2.65 2.66 4.3 3 6 C9.93 6.495 9.93 6.495 17 7 C17 8.98 17 10.96 17 13 C13.34146907 14.82926546 9.0039612 14.46878116 4.96875 14.71875 C2.0735199 14.81288062 2.0735199 14.81288062 0 16 C-0.66 15.34 -1.32 14.68 -2 14 C-2 13.34 -2 12.68 -2 12 C-2.04125 10.865625 -2.0825 9.73125 -2.125 8.5625 C-2 5 -2 5 0 2 C0 1.34 0 0.68 0 0 Z " fill="#F0F4F6" transform="translate(547,617)"/>
<path d="M0 0 C1.63001953 0.01353516 1.63001953 0.01353516 3.29296875 0.02734375 C4.12441406 0.03894531 4.95585937 0.05054688 5.8125 0.0625 C5.1525 2.3725 4.4925 4.6825 3.8125 7.0625 C-3.9375 7.1875 -3.9375 7.1875 -6.1875 6.0625 C-7.1775 6.5575 -7.1775 6.5575 -8.1875 7.0625 C-8.1875 7.7225 -8.1875 8.3825 -8.1875 9.0625 C-9.1775 8.7325 -10.1675 8.4025 -11.1875 8.0625 C-10.375 4.625 -10.375 4.625 -9.1875 1.0625 C-5.90230525 -0.03256492 -3.45086585 -0.03710608 0 0 Z " fill="#FAFDFE" transform="translate(436.1875,571.9375)"/>
<path d="M0 0 C1.64574566 -0.02688151 3.29161413 -0.04634123 4.9375 -0.0625 C5.85402344 -0.07410156 6.77054688 -0.08570313 7.71484375 -0.09765625 C10 0 10 0 11 1 C11.1875 3.9375 11.1875 3.9375 11 7 C9 9 9 9 6.8359375 9.1953125 C4.55729167 9.13020833 2.27864583 9.06510417 0 9 C0 6.03 0 3.06 0 0 Z " fill="#283035" transform="translate(520,565)"/>
<path d="M0 0 C-0.66 1.98 -1.32 3.96 -2 6 C-7.28 6 -12.56 6 -18 6 C-18 4.35 -18 2.7 -18 1 C-17.24074219 0.93941406 -16.48148437 0.87882813 -15.69921875 0.81640625 C-14.70535156 0.73261719 -13.71148437 0.64882813 -12.6875 0.5625 C-11.70136719 0.48128906 -10.71523438 0.40007813 -9.69921875 0.31640625 C-1.91911765 -0.59558824 -1.91911765 -0.59558824 0 0 Z " fill="#20262C" transform="translate(495,579)"/>
<path d="M0 0 C-0.99 1.485 -0.99 1.485 -2 3 C-0.68 3.66 0.64 4.32 2 5 C2 5.33 2 5.66 2 6 C-3.61 6 -9.22 6 -15 6 C-15 4.02 -15 2.04 -15 0 C-12.87562788 -0.19448477 -10.75046809 -0.38038289 -8.625 -0.5625 C-7.44164062 -0.66691406 -6.25828125 -0.77132812 -5.0390625 -0.87890625 C-2 -1 -2 -1 0 0 Z " fill="#43494E" transform="translate(564,631)"/>
<path d="M0 0 C4.62 0.66 9.24 1.32 14 2 C14 2.33 14 2.66 14 3 C12.576875 3.0928125 12.576875 3.0928125 11.125 3.1875 C9.578125 3.5896875 9.578125 3.5896875 8 4 C6.67518454 6.39529669 6.67518454 6.39529669 6 9 C5.34 9.66 4.68 10.32 4 11 C0.875 10.625 0.875 10.625 -2 10 C-1.54177532 6.53058454 -1.10868317 3.32604951 0 0 Z " fill="#E8ECF0" transform="translate(465,634)"/>
<path d="M0 0 C6.6 0 13.2 0 20 0 C17 4 17 4 14 5 C11.60509014 5.06970052 9.20832309 5.08448003 6.8125 5.0625 C5.54019531 5.05347656 4.26789063 5.04445313 2.95703125 5.03515625 C1.49330078 5.01775391 1.49330078 5.01775391 0 5 C0 3.35 0 1.7 0 0 Z " fill="#1B2024" transform="translate(477,565)"/>
<path d="M0 0 C1.875 0.3125 1.875 0.3125 4 1 C4.66 1.99 5.32 2.98 6 4 C6.99 4.33 7.98 4.66 9 5 C9.66666667 6.66666667 10.33333333 8.33333333 11 10 C11.99 10.33 12.98 10.66 14 11 C14.6875 13.0625 14.6875 13.0625 15 15 C15.66 14.34 16.32 13.68 17 13 C16.67 14.65 16.34 16.3 16 18 C15.01 18.33 14.02 18.66 13 19 C10.82554873 16.21431795 8.66179961 13.42050802 6.5 10.625 C5.87996094 9.8309375 5.25992187 9.036875 4.62109375 8.21875 C4.03457031 7.45820312 3.44804687 6.69765625 2.84375 5.9140625 C2.29912109 5.2123291 1.75449219 4.5105957 1.19335938 3.78759766 C0 2 0 2 0 0 Z " fill="#2C3236" transform="translate(365,647)"/>
<path d="M0 0 C4.86896303 0.59619955 9.32790951 1.56976822 14 3 C13.67 3.66 13.34 4.32 13 5 C12.34 5 11.68 5 11 5 C11.33 6.32 11.66 7.64 12 9 C10.20763933 8.52343588 8.41613103 8.04366502 6.625 7.5625 C5.62726563 7.29566406 4.62953125 7.02882813 3.6015625 6.75390625 C1 6 1 6 -1 5 C-0.67 3.35 -0.34 1.7 0 0 Z " fill="#34393D" transform="translate(441,617)"/>
<path d="M0 0 C2 1 2 1 4 3 C4.36933645 5.75372909 4.18336678 8.20365661 4 11 C2.02 11.66 0.04 12.32 -2 13 C-4 11.1875 -4 11.1875 -6 9 C-6 8.01 -6 7.02 -6 6 C-4.35 5.67 -2.7 5.34 -1 5 C-0.67 3.35 -0.34 1.7 0 0 Z " fill="#2A393E" transform="translate(397,383)"/>
<path d="M0 0 C0.99 0.33 1.98 0.66 3 1 C-0.14285714 9.57142857 -0.14285714 9.57142857 -2 13 C-2.99 13 -3.98 13 -5 13 C-5.33 11.68 -5.66 10.36 -6 9 C-6.66 10.65 -7.32 12.3 -8 14 C-10.475 13.01 -10.475 13.01 -13 12 C-8.375 6.125 -8.375 6.125 -5 5 C-4.34 5.33 -3.68 5.66 -3 6 C-2.67 5.01 -2.34 4.02 -2 3 C-1.34 3 -0.68 3 0 3 C0 2.01 0 1.02 0 0 Z " fill="#283035" transform="translate(463,632)"/>
<path d="M0 0 C0 0.66 0 1.32 0 2 C-13.86 1.505 -13.86 1.505 -28 1 C-28.33 10.9 -28.66 20.8 -29 31 C-29.33 31 -29.66 31 -30 31 C-30.02505615 30.26362305 -30.0501123 29.52724609 -30.07592773 28.76855469 C-30.19204273 25.42886622 -30.31469918 22.08944903 -30.4375 18.75 C-30.47681641 17.59113281 -30.51613281 16.43226563 -30.55664062 15.23828125 C-30.59853516 14.12324219 -30.64042969 13.00820313 -30.68359375 11.859375 C-30.72025146 10.83295898 -30.75690918 9.80654297 -30.79467773 8.74902344 C-30.9019237 6.05393154 -30.9019237 6.05393154 -31.64477539 3.75878906 C-31.76199951 3.17838867 -31.87922363 2.59798828 -32 2 C-29.48729474 -0.51270526 -28.50333736 -0.30433048 -25.01953125 -0.44921875 C-24.01986328 -0.49240234 -23.02019531 -0.53558594 -21.99023438 -0.58007812 C-20.94158203 -0.61552734 -19.89292969 -0.65097656 -18.8125 -0.6875 C-17.26852539 -0.75807617 -17.26852539 -0.75807617 -15.69335938 -0.83007812 C-10.30944348 -1.04046818 -5.29932369 -0.99690248 0 0 Z " fill="#13191E" transform="translate(570,609)"/>
<path d="M0 0 C5.21779088 1.42303388 8.62805264 4.9300958 12 9 C12.33 9.99 12.66 10.98 13 12 C12.34 12.66 11.68 13.32 11 14 C9.02 13.34 7.04 12.68 5 12 C5.04125 11.278125 5.0825 10.55625 5.125 9.8125 C4.99078695 6.79270631 4.24829381 4.73064271 3 2 C2.01 2.495 2.01 2.495 1 3 C1.99 4.485 1.99 4.485 3 6 C1.33333333 6 -0.33333333 6 -2 6 C-2.33 5.01 -2.66 4.02 -3 3 C-2.34 3 -1.68 3 -1 3 C-0.67 2.01 -0.34 1.02 0 0 Z " fill="#EAEFF1" transform="translate(595,344)"/>
<path d="M0 0 C0.66 0 1.32 0 2 0 C2.05422947 1.4370809 2.09289723 2.87475462 2.125 4.3125 C2.14820313 5.11300781 2.17140625 5.91351563 2.1953125 6.73828125 C1.88655301 10.31371614 0.12420405 11.89132146 -2.5 14.1875 C-5 16 -5 16 -7 16 C-6.28028381 12.24654344 -4.66887798 9.13908031 -2.9375 5.75 C-2.11572266 4.13351562 -2.11572266 4.13351562 -1.27734375 2.484375 C-0.64505859 1.25460937 -0.64505859 1.25460937 0 0 Z " fill="#2E3338" transform="translate(301,319)"/>
<path d="M0 0 C2.64 0 5.28 0 8 0 C9.32 2.64 10.64 5.28 12 8 C8.71023192 9.09658936 7.28696233 8.79953138 4 8 C3.67 7.01 3.34 6.02 3 5 C3.33 4.34 3.66 3.68 4 3 C2.68 3 1.36 3 0 3 C0 2.01 0 1.02 0 0 Z " fill="#252E37" transform="translate(519,583)"/>
<path d="M0 0 C0.33 0.66 0.66 1.32 1 2 C0.01 3.485 0.01 3.485 -1 5 C-0.60428244 7.78855122 -0.60428244 7.78855122 1 10 C1.04063832 11.66617115 1.042721 13.33388095 1 15 C0.01 15.495 0.01 15.495 -1 16 C-2.98 12.37 -4.96 8.74 -7 5 C-6.01 3.68 -5.02 2.36 -4 1 C-3.67 1.66 -3.34 2.32 -3 3 C-2.01 2.01 -1.02 1.02 0 0 Z " fill="#2E3338" transform="translate(622,360)"/>
<path d="M0 0 C0.71484375 1.703125 0.71484375 1.703125 1 4 C-0.43359375 6.359375 -0.43359375 6.359375 -2.4375 8.75 C-3.42556641 9.94882812 -3.42556641 9.94882812 -4.43359375 11.171875 C-4.95050781 11.77515625 -5.46742188 12.3784375 -6 13 C-8.9765625 10.3359375 -8.9765625 10.3359375 -9.1875 7.3125 C-9.125625 6.549375 -9.06375 5.78625 -9 5 C-7.35 4.67 -5.7 4.34 -4 4 C-4.33 3.01 -4.66 2.02 -5 1 C-2 0 -2 0 0 0 Z " fill="#2B3135" transform="translate(633,649)"/>
<path d="M0 0 C0.99 0 1.98 0 3 0 C3 0.66 3 1.32 3 2 C3.66 2 4.32 2 5 2 C5.33 1.34 5.66 0.68 6 0 C6.66 0.99 7.32 1.98 8 3 C8.99 3 9.98 3 11 3 C11.33 4.32 11.66 5.64 12 7 C12.66 6.67 13.32 6.34 14 6 C13.67 7.32 13.34 8.64 13 10 C8.96618977 10 7.50566363 8.40426438 4.3125 6 C3.31863281 5.2575 2.32476563 4.515 1.30078125 3.75 C0.54152344 3.1725 -0.21773437 2.595 -1 2 C-0.67 1.34 -0.34 0.68 0 0 Z " fill="#2C3237" transform="translate(601,277)"/>
<path d="M0 0 C4.21814817 3.9700218 7.61227103 8.30840284 11 13 C10.01 13.33 9.02 13.66 8 14 C7.67 14.66 7.34 15.32 7 16 C6.01 15.67 5.02 15.34 4 15 C4.185625 14.401875 4.37125 13.80375 4.5625 13.1875 C5.22093687 10.83591238 5.22093687 10.83591238 4 8 C3.319375 7.360625 2.63875 6.72125 1.9375 6.0625 C0 4 0 4 0 0 Z " fill="#E8EDF1" transform="translate(413,710)"/>
<path d="M0 0 C3.40755272 1.92880342 6.74147635 3.8276509 10 6 C10 6.99 10 7.98 10 9 C7.1875 10.125 7.1875 10.125 4 11 C3.01 10.34 2.02 9.68 1 9 C1.33 8.34 1.66 7.68 2 7 C2 6.34 2 5.68 2 5 C1.34 4.67 0.68 4.34 0 4 C0 2.68 0 1.36 0 0 Z " fill="#282D31" transform="translate(584,293)"/>
<path d="M0 0 C-0.34013015 5.44208234 -3.70296528 8.93668198 -7 13 C-8.32 12.34 -9.64 11.68 -11 11 C-9.71034824 9.62437146 -8.37310707 8.29233607 -7 7 C-6.34 7 -5.68 7 -5 7 C-5.33 5.35 -5.66 3.7 -6 2 C-3 0 -3 0 0 0 Z " fill="#2A3036" transform="translate(646,633)"/>
<path d="M0 0 C1.25541557 3.76624671 0.37061958 5.37188934 -1 9 C-1.99 9 -2.98 9 -4 9 C-3.79375 9.598125 -3.5875 10.19625 -3.375 10.8125 C-3 13 -3 13 -5 16 C-5.99 16 -6.98 16 -8 16 C-8.33 17.65 -8.66 19.3 -9 21 C-9.66 20.67 -10.32 20.34 -11 20 C-9.92177933 17.78904188 -8.83762596 15.58132694 -7.75 13.375 C-7.44964844 12.75753906 -7.14929688 12.14007813 -6.83984375 11.50390625 C-4.82957212 7.44059125 -2.58868299 3.7226636 0 0 Z " fill="#2F3639" transform="translate(360,350)"/>
<path d="M0 0 C0.65234375 1.765625 0.65234375 1.765625 1 4 C0.00390625 5.921875 0.00390625 5.921875 -1.4375 7.75 C-1.91058594 8.36359375 -2.38367188 8.9771875 -2.87109375 9.609375 C-3.24363281 10.06828125 -3.61617188 10.5271875 -4 11 C-5.5 9.625 -5.5 9.625 -7 8 C-7 7.34 -7 6.68 -7 6 C-7.33 5.01 -7.66 4.02 -8 3 C-3.375 0 -3.375 0 0 0 Z " fill="#2C3137" transform="translate(393,353)"/>
<path d="M0 0 C-0.66 1.32 -1.32 2.64 -2 4 C-3.32 4 -4.64 4 -6 4 C-5.67 4.66 -5.34 5.32 -5 6 C-7.31 6.66 -9.62 7.32 -12 8 C-12 7.01 -12 6.02 -12 5 C-12.66 4.67 -13.32 4.34 -14 4 C-12.42466914 3.13116294 -10.83935491 2.28040932 -9.25 1.4375 C-8.36828125 0.96183594 -7.4865625 0.48617188 -6.578125 -0.00390625 C-3.79298812 -1.07998186 -2.73019786 -1.06528748 0 0 Z " fill="#E9EFF0" transform="translate(433,264)"/>
<path d="M0 0 C1.32 0.66 2.64 1.32 4 2 C3.67 3.65 3.34 5.3 3 7 C4.32 7 5.64 7 7 7 C7 7.99 7 8.98 7 10 C4.03 10 1.06 10 -2 10 C-1.33333333 6.66666667 -0.66666667 3.33333333 0 0 Z " fill="#1F2428" transform="translate(564,626)"/>
<path d="M0 0 C0.99 0.99 1.98 1.98 3 3 C3.66 2.67 4.32 2.34 5 2 C4.88637738 3.4800841 4.75877092 4.95910074 4.625 6.4375 C4.55539062 7.26121094 4.48578125 8.08492187 4.4140625 8.93359375 C4.27742187 9.61550781 4.14078125 10.29742188 4 11 C3.01 11.495 3.01 11.495 2 12 C1.13341385 10.73760288 0.28207941 9.46472499 -0.5625 8.1875 C-1.27599609 7.12595703 -1.27599609 7.12595703 -2.00390625 6.04296875 C-3 4 -3 4 -2 1 C-1.34 0.67 -0.68 0.34 0 0 Z " fill="#2F353D" transform="translate(538,578)"/>
<path d="M0 0 C0.66 0 1.32 0 2 0 C2.6663569 3.02829521 3.14543237 5.89398005 3 9 C0.5625 12.0625 0.5625 12.0625 -2 14 C-2 11.02125433 -1.8790419 8.25877459 -1.5625 5.3125 C-1.48128906 4.52488281 -1.40007813 3.73726563 -1.31640625 2.92578125 C-1 1 -1 1 0 0 Z " fill="#2A3236" transform="translate(548,402)"/>
<path d="M0 0 C0.33 0 0.66 0 1 0 C1.67507066 3.06070934 2.33854922 6.1238209 3 9.1875 C3.19078125 10.05181641 3.3815625 10.91613281 3.578125 11.80664062 C3.75859375 12.64775391 3.9390625 13.48886719 4.125 14.35546875 C4.29257812 15.12528076 4.46015625 15.89509277 4.6328125 16.68823242 C5.02550915 19.16060247 5.06185285 21.50075809 5 24 C4.34 24 3.68 24 3 24 C-0.11584616 15.95073076 -0.33328851 8.56674915 0 0 Z " fill="#33393D" transform="translate(724,376)"/>
<path d="M0 0 C0.33 0 0.66 0 1 0 C1 1.65 1 3.3 1 5 C2.32 4.67 3.64 4.34 5 4 C5 3.34 5 2.68 5 2 C4.01 1.67 3.02 1.34 2 1 C5.96 1 9.92 1 14 1 C14.33 2.32 14.66 3.64 15 5 C11.71480525 6.09506492 9.26336585 6.09960608 5.8125 6.0625 C4.18248047 6.04896484 4.18248047 6.04896484 2.51953125 6.03515625 C1.68808594 6.02355469 0.85664062 6.01195312 0 6 C0 4.02 0 2.04 0 0 Z " fill="#404549" transform="translate(514,618)"/>
<path d="M0 0 C2.46278801 1.231394 3.42497687 2.78064923 5 5 C4.01 6.32 3.02 7.64 2 9 C0.125 8.75 0.125 8.75 -2 8 C-3.25 5.9375 -3.25 5.9375 -4 4 C-2.68 2.68 -1.36 1.36 0 0 Z " fill="#293236" transform="translate(531,408)"/>
<path d="M0 0 C0.66 1.32 1.32 2.64 2 4 C1.34 4.66 0.68 5.32 0 6 C-0.495 7.175625 -0.99 8.35125 -1.5 9.5625 C-3 13 -3 13 -5 14 C-6.2109375 11.80078125 -6.2109375 11.80078125 -7 9 C-5.6640625 6.54296875 -5.6640625 6.54296875 -3.625 4.1875 C-2.95726562 3.39730469 -2.28953125 2.60710937 -1.6015625 1.79296875 C-1.07304687 1.20128906 -0.54453125 0.60960937 0 0 Z " fill="#272E33" transform="translate(376,328)"/>
<path d="M0 0 C0.66 0.33 1.32 0.66 2 1 C3.28317892 4.84953676 3.06643637 7.94738135 3 12 C2.01 12.33 1.02 12.66 0 13 C-1 12 -1 12 -1.1328125 9.53125 C-1.13023437 8.5309375 -1.12765625 7.530625 -1.125 6.5 C-1.12757813 5.4996875 -1.13015625 4.499375 -1.1328125 3.46875 C-1 1 -1 1 0 0 Z " fill="#D5DADE" transform="translate(630,396)"/>
<path d="M0 0 C3.125 0.25 3.125 0.25 5.0625 1.5 C6.125 3.25 6.125 3.25 5.8125 5.4375 C5.4721875 6.3346875 5.4721875 6.3346875 5.125 7.25 C2.65 6.26 2.65 6.26 0.125 5.25 C0.125 4.26 0.125 3.27 0.125 2.25 C-1.855 3.24 -3.835 4.23 -5.875 5.25 C-3.48114934 0.30270864 -3.48114934 0.30270864 0 0 Z " fill="#252E31" transform="translate(413.875,359.75)"/>
<path d="M0 0 C0.66 0.33 1.32 0.66 2 1 C2 3.66666667 2 6.33333333 2 9 C1.01 9.33 0.02 9.66 -1 10 C-4 6.375 -4 6.375 -4 3 C-3.34 3 -2.68 3 -2 3 C-2 2.34 -2 1.68 -2 1 C-1.34 0.67 -0.68 0.34 0 0 Z " fill="#2A2F35" transform="translate(355,624)"/>
<path d="M0 0 C-0.55338542 1.98567708 -1.10677083 3.97135417 -1.66015625 5.95703125 C-2.19563817 8.19244159 -2.19563817 8.19244159 -1 11 C-1.99 11.99 -2.98 12.98 -4 14 C-5.59138038 10.81723924 -5.39713508 7.4646612 -5 4 C-2.8 0 -2.8 0 0 0 Z " fill="#EDF0F3" transform="translate(436,612)"/>
<path d="M0 0 C0.33 0 0.66 0 1 0 C1.33 5.28 1.66 10.56 2 16 C3.65 16.33 5.3 16.66 7 17 C4.60490662 19.89932357 2.68754757 20.50168276 -1 21 C-1.33 20.01 -1.66 19.02 -2 18 C-1.34 18 -0.68 18 0 18 C-0.66 16.35 -1.32 14.7 -2 13 C-1.34 13 -0.68 13 0 13 C0 8.71 0 4.42 0 0 Z " fill="#33383E" transform="translate(554,579)"/>
<path d="M0 0 C0.66 0.33 1.32 0.66 2 1 C1.60856977 3.27029534 1.11258722 4.83408198 -0.1875 6.75 C-2.78687216 8.54267046 -4.92339216 8.20510719 -8 8 C-8 7.01 -8 6.02 -8 5 C-6.3203125 3.578125 -6.3203125 3.578125 -4.125 2.25 C-3.40570313 1.80140625 -2.68640625 1.3528125 -1.9453125 0.890625 C-1.30335938 0.59671875 -0.66140625 0.3028125 0 0 Z " fill="#E3E8EB" transform="translate(413,271)"/>
<path d="M0 0 C8.39802254 -0.12190678 16.64251778 0.15672251 25 1 C25 1.33 25 1.66 25 2 C21.20956819 2.25408976 17.41791947 2.47403593 13.625 2.6875 C12.54476562 2.76033203 11.46453125 2.83316406 10.3515625 2.90820312 C9.3203125 2.96298828 8.2890625 3.01777344 7.2265625 3.07421875 C6.27346191 3.13182373 5.32036133 3.18942871 4.33837891 3.2487793 C3.56671387 3.16668213 2.79504883 3.08458496 2 3 C1.34 2.01 0.68 1.02 0 0 Z " fill="#1B2026" transform="translate(555,594)"/>
<path d="M0 0 C2 1 2 1 3 3 C1.68 3.33 0.36 3.66 -1 4 C-0.67 5.32 -0.34 6.64 0 8 C-0.66 7.67 -1.32 7.34 -2 7 C-2.66 7.66 -3.32 8.32 -4 9 C-7 9 -7 9 -9 8 C-6.03 5.36 -3.06 2.72 0 0 Z M4 0 C4.33 0.66 4.66 1.32 5 2 C4.34 1.67 3.68 1.34 3 1 C3.33 0.67 3.66 0.34 4 0 Z " fill="#30393D" transform="translate(400,305)"/>
<path d="M0 0 C1.32 0.33 2.64 0.66 4 1 C3.54625 1.5775 3.0925 2.155 2.625 2.75 C1.15886484 4.7800333 0.05142216 6.73539843 -1 9 C-1.66 9 -2.32 9 -3 9 C-3.99 9.495 -3.99 9.495 -5 10 C-5.33 9.01 -5.66 8.02 -6 7 C-4.78515625 5.17578125 -4.78515625 5.17578125 -3.0625 3.3125 C-2.49660156 2.68988281 -1.93070312 2.06726563 -1.34765625 1.42578125 C-0.90292969 0.95527344 -0.45820313 0.48476563 0 0 Z " fill="#31383D" transform="translate(330,278)"/>
<path d="M0 0 C0.66 0 1.32 0 2 0 C2 0.66 2 1.32 2 2 C3.65 2.33 5.3 2.66 7 3 C7.33 2.34 7.66 1.68 8 1 C9 4 9 4 8 7 C7.34 7 6.68 7 6 7 C5.67 7.66 5.34 8.32 5 9 C0 3.375 0 3.375 0 0 Z " fill="#2E3338" transform="translate(463,770)"/>
<path d="M0 0 C3.63 0.33 7.26 0.66 11 1 C11 1.66 11 2.32 11 3 C11.99 3.33 12.98 3.66 14 4 C10.37 4 6.74 4 3 4 C2.67 3.34 2.34 2.68 2 2 C1.01 3.485 1.01 3.485 0 5 C0 3.35 0 1.7 0 0 Z " fill="#3C3F48" transform="translate(549,618)"/>
<path d="M0 0 C3 0 3 0 5.6875 2.5625 C8.39417226 5.95799604 8.43127405 8.68725946 8 13 C0 3.28571429 0 3.28571429 0 0 Z " fill="#2D3337" transform="translate(653,329)"/>
<path d="M0 0 C3.79450934 0.39253545 5.51015791 2.24338912 8 5 C7.67 5.66 7.34 6.32 7 7 C4.66666667 7 2.33333333 7 0 7 C-0.38133299 5.0085944 -0.71325582 3.00720923 -1 1 C-0.67 0.67 -0.34 0.34 0 0 Z " fill="#E8EEEE" transform="translate(578,328)"/>
<path d="M0 0 C2.5 0.3125 2.5 0.3125 5 1 C5.33 1.66 5.66 2.32 6 3 C4.35 2.67 2.7 2.34 1 2 C1 10.25 1 18.5 1 27 C0.67 27 0.34 27 0 27 C-0.19582583 22.68783519 -0.38027074 18.3752591 -0.5625 14.0625 C-0.61857422 12.83080078 -0.67464844 11.59910156 -0.73242188 10.33007812 C-0.78076172 9.16025391 -0.82910156 7.99042969 -0.87890625 6.78515625 C-0.9260376 5.70113525 -0.97316895 4.61711426 -1.02172852 3.50024414 C-1 1 -1 1 0 0 Z " fill="#1B2227" transform="translate(550,309)"/>
<path d="M0 0 C3.36720387 1.39332574 4.9859524 2.9789286 7 6 C6.01 6.495 6.01 6.495 5 7 C5.66 7.66 6.32 8.32 7 9 C6.01 9 5.02 9 4 9 C3 8 3 8 2.9375 5.4375 C2.958125 4.633125 2.97875 3.82875 3 3 C1.68 3 0.36 3 -1 3 C-0.67 2.01 -0.34 1.02 0 0 Z M1 9 C2.32 9.33 3.64 9.66 5 10 C5 10.66 5 11.32 5 12 C4.01 12.33 3.02 12.66 2 13 C1.67 11.68 1.34 10.36 1 9 Z " fill="#F3F8FB" transform="translate(624,299)"/>
<path d="M0 0 C2.64 1.98 5.28 3.96 8 6 C7.01 7.485 7.01 7.485 6 9 C6 8.34 6 7.68 6 7 C3.03 6.67 0.06 6.34 -3 6 C-2.625 3.5625 -2.625 3.5625 -2 1 C-1.34 0.67 -0.68 0.34 0 0 Z " fill="#E6EBED" transform="translate(614,289)"/>
<path d="M0 0 C2.4375 0.8125 2.4375 0.8125 5 2 C6 5 6 5 5.0625 7.1875 C4.5365625 8.0846875 4.5365625 8.0846875 4 9 C1.27573689 6.64722731 0.1858237 4.37503669 -1 1 C-0.67 0.67 -0.34 0.34 0 0 Z " fill="#2C3137" transform="translate(322,582)"/>
<path d="M0 0 C1.42944945 2.35438733 2.08661261 3.48032433 1.625 6.25 C1.41875 6.8275 1.2125 7.405 1 8 C0.34 8 -0.32 8 -1 8 C-1.33 9.65 -1.66 11.3 -2 13 C-2.99 13 -3.98 13 -5 13 C-4.54554036 11.58208592 -4.08625056 10.16571954 -3.625 8.75 C-3.24214844 7.56664062 -3.24214844 7.56664062 -2.8515625 6.359375 C-2.04826333 4.13372042 -1.10288338 2.09068328 0 0 Z " fill="#30353B" transform="translate(293,335)"/>
<path d="M0 0 C0.309375 0.9590625 0.309375 0.9590625 0.625 1.9375 C1.89538209 4.34925077 1.89538209 4.34925077 5.125 4.75 C6.07375 4.8325 7.0225 4.915 8 5 C3.375 9 3.375 9 0 9 C-1.125 7.3125 -1.125 7.3125 -2 5 C-1.125 2.25 -1.125 2.25 0 0 Z " fill="#1C2329" transform="translate(442,590)"/>
<path d="M0 0 C1.125 1.625 1.125 1.625 2 4 C1.125 7.25 1.125 7.25 0 10 C-0.66 10 -1.32 10 -2 10 C-2 9.34 -2 8.68 -2 8 C-2.99 8 -3.98 8 -5 8 C-4.67 6.68 -4.34 5.36 -4 4 C-3.01 4 -2.02 4 -1 4 C-0.67 2.68 -0.34 1.36 0 0 Z " fill="#2A3137" transform="translate(719,496)"/>
<path d="M0 0 C1.32 0.66 2.64 1.32 4 2 C2.02 4.97 2.02 4.97 0 8 C-1.32 7.01 -2.64 6.02 -4 5 C-3.67 3.68 -3.34 2.36 -3 1 C-3 1.66 -3 2.32 -3 3 C-2.34 3 -1.68 3 -1 3 C-0.67 2.01 -0.34 1.02 0 0 Z " fill="#E6EDEB" transform="translate(357,348)"/>
<path d="M0 0 C4 0 8 0 12 0 C12 1.98 12 3.96 12 6 C10.35 6 8.7 6 7 6 C6.67 4.68 6.34 3.36 6 2 C3.03 1.505 3.03 1.505 0 1 C0 0.67 0 0.34 0 0 Z " fill="#1E2328" transform="translate(526,609)"/>
<path d="M0 0 C2.62187494 1.04874998 3.79371361 1.64931313 5.25 4.125 C5.4975 4.74375 5.745 5.3625 6 6 C5.34 6.66 4.68 7.32 4 8 C2.02 7.34 0.04 6.68 -2 6 C-1.34 4.02 -0.68 2.04 0 0 Z " fill="#E4E9EB" transform="translate(602,350)"/>
<path d="M0 0 C-4.5 4 -4.5 4 -9 4 C-11.25 3 -11.25 3 -13 2 C-4.738041 -1.62870159 -4.738041 -1.62870159 0 0 Z " fill="#323A3E" transform="translate(448,282)"/>
<path d="M0 0 C0.33 1.32 0.66 2.64 1 4 C0.01 4.33 -0.98 4.66 -2 5 C-2 5.66 -2 6.32 -2 7 C-1.34 7.33 -0.68 7.66 0 8 C-0.639375 8.268125 -1.27875 8.53625 -1.9375 8.8125 C-4.33131686 9.88667752 -4.33131686 9.88667752 -5 13 C-5.66 13 -6.32 13 -7 13 C-5.35821735 8.22390502 -2.73453298 4.20617096 0 0 Z " fill="#E0E8EA" transform="translate(344,338)"/>
<path d="M0 0 C0.66 0 1.32 0 2 0 C2.66 2.64 3.32 5.28 4 8 C2.02 8 0.04 8 -2 8 C-1.34 5.36 -0.68 2.72 0 0 Z " fill="#41454A" transform="translate(479,621)"/>
<path d="M0 0 C0.99 0.33 1.98 0.66 3 1 C3 1.66 3 2.32 3 3 C3.66 3.66 4.32 4.32 5 5 C4.34 5 3.68 5 3 5 C2.67 7.64 2.34 10.28 2 13 C1.67 13 1.34 13 1 13 C1 10.36 1 7.72 1 5 C-0.98 4.34 -2.96 3.68 -5 3 C-4.360625 2.690625 -3.72125 2.38125 -3.0625 2.0625 C-1.06389179 1.1654837 -1.06389179 1.1654837 0 0 Z " fill="#41444A" transform="translate(577,566)"/>
<path d="M0 0 C3.28670403 3.28670403 5 7.35868331 5 12 C4.01 12.33 3.02 12.66 2 13 C0.54815522 8.46298506 -0.23509196 4.81938524 0 0 Z " fill="#CDD2D8" transform="translate(625,383)"/>
<path d="M0 0 C1.98 0.99 3.96 1.98 6 3 C6 3.66 6 4.32 6 5 C5.34 5 4.68 5 4 5 C3.67 5.66 3.34 6.32 3 7 C2.01 6.67 1.02 6.34 0 6 C0 4.02 0 2.04 0 0 Z M-3 2 C-2.01 2.33 -1.02 2.66 0 3 C-1.65 3.66 -3.3 4.32 -5 5 C-4.34 4.01 -3.68 3.02 -3 2 Z " fill="#2E3337" transform="translate(577,289)"/>
<path d="M0 0 C0.66 1.32 1.32 2.64 2 4 C-1.04983996 5.52491998 -3.6423369 5.23562548 -7 5 C-8.9375 3.5 -8.9375 3.5 -10 2 C-7.63591793 1.24011648 -6.30986733 0.9179763 -3.875 1.5625 C-3.25625 1.706875 -2.6375 1.85125 -2 2 C-1.34 1.34 -0.68 0.68 0 0 Z " fill="#363E41" transform="translate(504,809)"/>
<path d="M0 0 C2 3 2 3 2 5 C1.34 5 0.68 5 0 5 C-0.12375 5.969375 -0.2475 6.93875 -0.375 7.9375 C-0.58125 8.948125 -0.7875 9.95875 -1 11 C-1.99 11.495 -1.99 11.495 -3 12 C-3.75 9.375 -3.75 9.375 -4 6 C-2.0625 2.625 -2.0625 2.625 0 0 Z " fill="#30353B" transform="translate(309,306)"/>
<path d="M0 0 C2.64 0.99 5.28 1.98 8 3 C6.29374499 5.78388975 5.52373261 6.85384206 2.3125 7.75 C1.1678125 7.87375 1.1678125 7.87375 0 8 C0 7.01 0 6.02 0 5 C0.66 5 1.32 5 2 5 C2 4.34 2 3.68 2 3 C1.34 3 0.68 3 0 3 C0 2.01 0 1.02 0 0 Z " fill="#E5EBEE" transform="translate(571,263)"/>
<path d="M0 0 C2 3.75 2 3.75 2 6 C1.01 6 0.02 6 -1 6 C-1 6.66 -1 7.32 -1 8 C-1.99 8 -2.98 8 -4 8 C-4.33 7.01 -4.66 6.02 -5 5 C-3.625 3.5 -3.625 3.5 -2 2 C-1.34 2 -0.68 2 0 2 C0 1.34 0 0.68 0 0 Z " fill="#2B3036" transform="translate(541,591)"/>
<path d="M0 0 C1.67542976 0.28604898 3.34385343 0.61781233 5 1 C4.01 1.495 4.01 1.495 3 2 C1.63827813 5.78256075 1.46294268 10.03191992 1 14 C0.67 14 0.34 14 0 14 C-0.19393875 11.85473901 -0.37998676 9.70876323 -0.5625 7.5625 C-0.71912109 5.77005859 -0.71912109 5.77005859 -0.87890625 3.94140625 C-0.91886719 2.97074219 -0.95882813 2.00007812 -1 1 C-0.67 0.67 -0.34 0.34 0 0 Z " fill="#DDE1E3" transform="translate(443,578)"/>
<path d="M0 0 C0.33 0.66 0.66 1.32 1 2 C1.99 2.33 2.98 2.66 4 3 C1.64031256 5.09749995 0.45383006 5.96905704 -2.75 6.1875 C-3.86375 6.0946875 -3.86375 6.0946875 -5 6 C-4.67 4.35 -4.34 2.7 -4 1 C-2.68 0.67 -1.36 0.34 0 0 Z " fill="#2B3538" transform="translate(432,257)"/>
<path d="M0 0 C0.66 0 1.32 0 2 0 C1.51171875 6.0546875 1.51171875 6.0546875 1 8 C0.01 8.66 -0.98 9.32 -2 10 C-3.125 7.6875 -3.125 7.6875 -4 5 C-3.34 4.01 -2.68 3.02 -2 2 C-1.67 2.33 -1.34 2.66 -1 3 C-0.67 2.01 -0.34 1.02 0 0 Z " fill="#2A3237" transform="translate(493,617)"/>
<path d="M0 0 C2.01136276 2.55991624 3.62845496 5.04590299 5 8 C4.01 8.33 3.02 8.66 2 9 C1.71125 8.38125 1.4225 7.7625 1.125 7.125 C0.06279958 4.86674235 0.06279958 4.86674235 -2 3 C-1.34 2.01 -0.68 1.02 0 0 Z M-2 6 C-1.01 6.33 -0.02 6.66 1 7 C0.01 7.33 -0.98 7.66 -2 8 C-2 7.34 -2 6.68 -2 6 Z " fill="#2D343E" transform="translate(526,583)"/>
<path d="M0 0 C0.66 1.32 1.32 2.64 2 4 C2.66 4 3.32 4 4 4 C4 4.99 4 5.98 4 7 C4.66 7.33 5.32 7.66 6 8 C5.01 8 4.02 8 3 8 C3 7.34 3 6.68 3 6 C2.01 6.33 1.02 6.66 0 7 C-1.32 5.02 -2.64 3.04 -4 1 C-2.68 0.67 -1.36 0.34 0 0 Z " fill="#2C3136" transform="translate(405,693)"/>
<path d="M0 0 C2.6855594 2.6855594 3.06049974 5.37621328 4 9 C3.01 9.99 2.02 10.98 1 12 C0.34 10.02 -0.32 8.04 -1 6 C-0.34 6 0.32 6 1 6 C1 5.01 1 4.02 1 3 C0.34 2.67 -0.32 2.34 -1 2 C-0.67 1.34 -0.34 0.68 0 0 Z " fill="#2C3237" transform="translate(714,347)"/>
<path d="M0 0 C1.32 0.66 2.64 1.32 4 2 C4 2.99 4 3.98 4 5 C0.37673261 6.2077558 -0.64146369 5.54311128 -4 4 C-2.68 2.68 -1.36 1.36 0 0 Z " fill="#323C3E" transform="translate(411,297)"/>
<path d="M0 0 C0.99 1.32 1.98 2.64 3 4 C1.71034824 5.37562854 0.37310707 6.70766393 -1 8 C-1.66 8 -2.32 8 -3 8 C-2.25 2.25 -2.25 2.25 0 0 Z " fill="#2E3337" transform="translate(549,753)"/>
<path d="M0 0 C1.32 0.66 2.64 1.32 4 2 C2.68 2.33 1.36 2.66 0 3 C0 3.99 0 4.98 0 6 C-1.98 5.34 -3.96 4.68 -6 4 C-5.38125 3.71125 -4.7625 3.4225 -4.125 3.125 C-1.86674235 2.06279958 -1.86674235 2.06279958 0 0 Z M-5 6 C-4.01 6 -3.02 6 -2 6 C-2.33 6.66 -2.66 7.32 -3 8 C-3.66 7.34 -4.32 6.68 -5 6 Z " fill="#2B3034" transform="translate(531,617)"/>
<path d="M0 0 C0.99 0 1.98 0 3 0 C3 0.66 3 1.32 3 2 C5.64 2 8.28 2 11 2 C11 2.33 11 2.66 11 3 C8.36 3 5.72 3 3 3 C3 5.64 3 8.28 3 11 C2.67 11 2.34 11 2 11 C1.34 7.37 0.68 3.74 0 0 Z " fill="#B8BFC2" transform="translate(517,562)"/>
<path d="M0 0 C2 1.5 2 1.5 4 4 C4.35800135 6.75871627 4.18660165 9.20097524 4 12 C1.94577945 9.94577945 1.31862408 8.66990976 0.3125 6 C0.04050781 5.29875 -0.23148438 4.5975 -0.51171875 3.875 C-1 2 -1 2 0 0 Z " fill="#2C3137" transform="translate(625,378)"/>
<path d="M0 0 C0.66 0 1.32 0 2 0 C2.33 0.99 2.66 1.98 3 3 C1.0625 5.6875 1.0625 5.6875 -1 8 C-1.99 7.34 -2.98 6.68 -4 6 C-4 5.34 -4 4.68 -4 4 C-2.68 3.67 -1.36 3.34 0 3 C0 2.01 0 1.02 0 0 Z " fill="#E4EAEA" transform="translate(301,313)"/>
<path d="M0 0 C0.8971875 0.5259375 0.8971875 0.5259375 1.8125 1.0625 C-1.27638522 3.12175681 -1.89685927 3.3015374 -5.375 3.1875 C-7.2621875 3.125625 -7.2621875 3.125625 -9.1875 3.0625 C-3.45766129 -1.48185484 -3.45766129 -1.48185484 0 0 Z " fill="#30393D" transform="translate(419.1875,216.9375)"/>
<path d="M0 0 C0.66 0.99 1.32 1.98 2 3 C0.35 4.98 -1.3 6.96 -3 9 C-3.66 7.68 -4.32 6.36 -5 5 C-3.625 3.5 -3.625 3.5 -2 2 C-1.34 2 -0.68 2 0 2 C0 1.34 0 0.68 0 0 Z " fill="#373E41" transform="translate(513,801)"/>
<path d="M0 0 C3.465 1.98 3.465 1.98 7 4 C5.60804085 6.7839183 3.84424221 6.97898997 1 8 C0.67 6.68 0.34 5.36 0 4 C0.99 4 1.98 4 3 4 C2.01 3.34 1.02 2.68 0 2 C0 1.34 0 0.68 0 0 Z " fill="#F4FAFA" transform="translate(441,752)"/>
<path d="M0 0 C0.99 0.33 1.98 0.66 3 1 C2.835 1.598125 2.67 2.19625 2.5 2.8125 C1.8885876 5.11344336 1.8885876 5.11344336 2 8 C1.01 8.495 1.01 8.495 0 9 C-0.99 8.01 -1.98 7.02 -3 6 C-2.01 4.02 -1.02 2.04 0 0 Z " fill="#F4F9FD" transform="translate(620,670)"/>
<path d="M0 0 C1.9453125 -0.29296875 1.9453125 -0.29296875 4.125 -0.1875 C5.40375 -0.125625 6.6825 -0.06375 8 0 C7.67 0.66 7.34 1.32 7 2 C6.38125 2.144375 5.7625 2.28875 5.125 2.4375 C2.63289608 3.09717457 1.6670554 4.08288629 0 6 C-0.66 5.01 -1.32 4.02 -2 3 C-1.34 2.01 -0.68 1.02 0 0 Z " fill="#FAFCFD" transform="translate(518,624)"/>
<path d="M0 0 C3.3125 -0.25 3.3125 -0.25 7 0 C8.9375 2 8.9375 2 10 4 C7 5 7 5 5.17578125 4.22265625 C3.45052083 3.1484375 1.72526042 2.07421875 0 1 C0 0.67 0 0.34 0 0 Z " fill="#32383E" transform="translate(531,556)"/>
<path d="M0 0 C0.99 0.33 1.98 0.66 3 1 C3 1.66 3 2.32 3 3 C2.01 3 1.02 3 0 3 C0.33 3.99 0.66 4.98 1 6 C-0.3125 8.6875 -0.3125 8.6875 -2 11 C-2.66 11 -3.32 11 -4 11 C-3.52269162 9.5410574 -3.04308958 8.08286504 -2.5625 6.625 C-2.29566406 5.81289063 -2.02882813 5.00078125 -1.75390625 4.1640625 C-1 2 -1 2 0 0 Z " fill="#E0E6EB" transform="translate(331,361)"/>
<path d="M0 0 C1.32 0 2.64 0 4 0 C4.33 1.32 4.66 2.64 5 4 C3.35 4 1.7 4 0 4 C-0.33 4.99 -0.66 5.98 -1 7 C-1.33 6.34 -1.66 5.68 -2 5 C-1.0625 2.375 -1.0625 2.375 0 0 Z " fill="#E5EAED" transform="translate(667,360)"/>
<path d="M0 0 C0.66 0 1.32 0 2 0 C2.125 2.875 2.125 2.875 2 6 C1.34 6.66 0.68 7.32 0 8 C0 7.34 0 6.68 0 6 C-0.99 5.67 -1.98 5.34 -3 5 C-1.125 1.125 -1.125 1.125 0 0 Z " fill="#F0F4F9" transform="translate(469,629)"/>
<path d="M0 0 C2.66735273 2.48952921 4.55746343 4.63408134 6 8 C4.35 7.67 2.7 7.34 1 7 C1 6.01 1 5.02 1 4 C0.34 4 -0.32 4 -1 4 C-0.67 2.68 -0.34 1.36 0 0 Z " fill="#DEE3E6" transform="translate(347,624)"/>
<path d="M0 0 C1.32 0 2.64 0 4 0 C3.625 2.9375 3.625 2.9375 3 6 C2.01 6.495 2.01 6.495 1 7 C1 5.68 1 4.36 1 3 C0.34 3 -0.32 3 -1 3 C-0.67 2.01 -0.34 1.02 0 0 Z M-3 3 C-2.01 3.495 -2.01 3.495 -1 4 C-1.99 4.495 -1.99 4.495 -3 5 C-3 4.34 -3 3.68 -3 3 Z " fill="#ECF0F2" transform="translate(536,572)"/>
<path d="M0 0 C0.99 1.32 1.98 2.64 3 4 C2.34 4.66 1.68 5.32 1 6 C0.34 6 -0.32 6 -1 6 C-1.66 6.66 -2.32 7.32 -3 8 C-3 5.35220307 -2.82804069 3.48412207 -2 1 C-1.34 0.67 -0.68 0.34 0 0 Z " fill="#E7EDF0" transform="translate(533,567)"/>
<path d="M0 0 C2.56687367 3.8503105 1.83288724 5.58569763 1 10 C0.01 10.33 -0.98 10.66 -2 11 C-1.34 7.37 -0.68 3.74 0 0 Z " fill="#2F3438" transform="translate(278,376)"/>
<path d="M0 0 C0.99 0.33 1.98 0.66 3 1 C1.63016497 4.16115776 1.0109362 4.9927092 -2 7 C-2.99 6.67 -3.98 6.34 -5 6 C-3.35 4.02 -1.7 2.04 0 0 Z " fill="#E4ECEE" transform="translate(418,371)"/>
<path d="M0 0 C1.875 0.25 1.875 0.25 4 1 C5.25 3.0625 5.25 3.0625 6 5 C5.01 5.66 4.02 6.32 3 7 C2.34 6.67 1.68 6.34 1 6 C0.375 2.9375 0.375 2.9375 0 0 Z " fill="#293035" transform="translate(689,305)"/>
<path d="M0 0 C-4.625 4.875 -4.625 4.875 -8 6 C-8.33 4.35 -8.66 2.7 -9 1 C-5.92677456 0.08941469 -3.19902639 -0.08886184 0 0 Z " fill="#303938" transform="translate(394,284)"/>
<path d="M0 0 C2.97 0.99 5.94 1.98 9 3 C4.82091936 5.08954032 4.19589427 5.16552619 0 4 C0 2.68 0 1.36 0 0 Z " fill="#303538" transform="translate(563,283)"/>
<path d="M0 0 C3.81538462 2.46153846 3.81538462 2.46153846 4.75 5.1875 C4.8325 5.785625 4.915 6.38375 5 7 C4.01 7 3.02 7 2 7 C2 6.01 2 5.02 2 4 C0.68 4.33 -0.64 4.66 -2 5 C-1.125 1.125 -1.125 1.125 0 0 Z " fill="#2B3035" transform="translate(491,801)"/>
<path d="M0 0 C1.98 0.99 3.96 1.98 6 3 C5.34 4.32 4.68 5.64 4 7 C2.35 5.68 0.7 4.36 -1 3 C-0.67 2.01 -0.34 1.02 0 0 Z " fill="#F3F8F9" transform="translate(338,616)"/>
<path d="M0 0 C2.64 0.33 5.28 0.66 8 1 C6.68 2.32 5.36 3.64 4 5 C3.01 4.67 2.02 4.34 1 4 C0.3125 1.9375 0.3125 1.9375 0 0 Z " fill="#1A2327" transform="translate(465,594)"/>
<path d="M0 0 C0.33 0 0.66 0 1 0 C1 2.31 1 4.62 1 7 C0.01 7.33 -0.98 7.66 -2 8 C-1.67 8.99 -1.34 9.98 -1 11 C-1.99 11 -2.98 11 -4 11 C-2.7874262 7.27566618 -1.49140021 3.62197194 0 0 Z " fill="#DCE3E6" transform="translate(708,532)"/>
<path d="M0 0 C1.2065625 0.0309375 1.2065625 0.0309375 2.4375 0.0625 C2.4375 0.7225 2.4375 1.3825 2.4375 2.0625 C1.7775 2.0625 1.1175 2.0625 0.4375 2.0625 C0.1075 3.3825 -0.2225 4.7025 -0.5625 6.0625 C-1.2225 6.0625 -1.8825 6.0625 -2.5625 6.0625 C-2.94468767 4.40635343 -3.27645102 2.73792976 -3.5625 1.0625 C-2.5625 0.0625 -2.5625 0.0625 0 0 Z " fill="#F2F6FB" transform="translate(716.5625,520.9375)"/>
<path d="M0 0 C1.42944945 2.35438733 2.08661261 3.48032433 1.625 6.25 C1.41875 6.8275 1.2125 7.405 1 8 C-0.32 8.33 -1.64 8.66 -3 9 C-2.34 8.67 -1.68 8.34 -1 8 C-0.53476937 6.10466658 -0.53476937 6.10466658 -0.375 3.9375 C-0.25125 2.638125 -0.1275 1.33875 0 0 Z M3 0 C3.33 0.99 3.66 1.98 4 3 C3.01 3.495 3.01 3.495 2 4 C2.33 2.68 2.66 1.36 3 0 Z " fill="#DBE2E5" transform="translate(392,424)"/>
<path d="M0 0 C2.52588702 2.36292656 3.88820837 3.66462511 5 7 C3.35 6.67 1.7 6.34 0 6 C-1.125 2.25 -1.125 2.25 0 0 Z " fill="#E1E6E9" transform="translate(651,328)"/>
<path d="M0 0 C1.4540625 0.0309375 1.4540625 0.0309375 2.9375 0.0625 C1.9375 3.0625 1.9375 3.0625 -0.125 4.25 C-0.764375 4.518125 -1.40375 4.78625 -2.0625 5.0625 C-2.7225 3.7425 -3.3825 2.4225 -4.0625 1.0625 C-3.0625 0.0625 -3.0625 0.0625 0 0 Z " fill="#2A2F34" transform="translate(460.0625,760.9375)"/>
<path d="M0 0 C2.5 2.3125 2.5 2.3125 5 5 C5 5.99 5 6.98 5 8 C2 7 2 7 0 4 C0 2.68 0 1.36 0 0 Z " fill="#DDE2E5" transform="translate(413,710)"/>
<path d="M0 0 C2.62187494 1.04874998 3.79371361 1.64931313 5.25 4.125 C5.4975 4.74375 5.745 5.3625 6 6 C4.68 6.33 3.36 6.66 2 7 C0.5393715 4.35261084 0 3.10551666 0 0 Z " fill="#E2E7E9" transform="translate(389,681)"/>
<path d="M0 0 C0.33 1.32 0.66 2.64 1 4 C1.66 3.67 2.32 3.34 3 3 C3.33 3.99 3.66 4.98 4 6 C3.34 6 2.68 6 2 6 C2 6.66 2 7.32 2 8 C0.68 7.67 -0.64 7.34 -2 7 C-1.125 2.25 -1.125 2.25 0 0 Z " fill="#1D242A" transform="translate(457,639)"/>
<path d="M0 0 C0.53625 0.37125 1.0725 0.7425 1.625 1.125 C1.295 1.785 0.965 2.445 0.625 3.125 C-2.75 3.25 -2.75 3.25 -6.375 3.125 C-7.035 2.465 -7.695 1.805 -8.375 1.125 C-2.95961538 -1.09038462 -2.95961538 -1.09038462 0 0 Z " fill="#3C4346" transform="translate(445.375,633.875)"/>
<path d="M0 0 C0.33 0.99 0.66 1.98 1 3 C2.65 3.33 4.3 3.66 6 4 C4 6 4 6 1.375 6.125 C0.59125 6.08375 -0.1925 6.0425 -1 6 C-1.625 4.125 -1.625 4.125 -2 2 C-1.34 1.34 -0.68 0.68 0 0 Z " fill="#E4EAED" transform="translate(439,619)"/>
<path d="M0 0 C1.32 0.66 2.64 1.32 4 2 C3.25 3.9375 3.25 3.9375 2 6 C-0.125 6.75 -0.125 6.75 -2 7 C-1.34 4.69 -0.68 2.38 0 0 Z " fill="#E5E9EF" transform="translate(715,515)"/>
<path d="M0 0 C2.475 0.99 2.475 0.99 5 2 C5 2.99 5 3.98 5 5 C4.34 5.66 3.68 6.32 3 7 C3 6.01 3 5.02 3 4 C1.68 3.34 0.36 2.68 -1 2 C-0.67 1.34 -0.34 0.68 0 0 Z " fill="#34363B" transform="translate(670,460)"/>
<path d="M0 0 C1.32 0.33 2.64 0.66 4 1 C3.814375 1.61875 3.62875 2.2375 3.4375 2.875 C2.76313824 5.04160178 2.76313824 5.04160178 4 7 C3.01 8.485 3.01 8.485 2 10 C0.68373308 6.38026598 0 3.90432869 0 0 Z " fill="#2F3438" transform="translate(675,368)"/>
<path d="M0 0 C1.5 1.375 1.5 1.375 3 3 C3 3.66 3 4.32 3 5 C2.34 5 1.68 5 1 5 C1 5.66 1 6.32 1 7 C0.01 7 -0.98 7 -2 7 C-2 5.02 -2 3.04 -2 1 C-1.34 0.67 -0.68 0.34 0 0 Z " fill="#2C3539" transform="translate(643,352)"/>
<path d="M0 0 C0.33 0.66 0.66 1.32 1 2 C1.66 2 2.32 2 3 2 C3.66 3.65 4.32 5.3 5 7 C4.01 7 3.02 7 2 7 C0.25 5.1875 0.25 5.1875 -1 3 C-0.67 2.01 -0.34 1.02 0 0 Z " fill="#2B3037" transform="translate(588,330)"/>
<path d="M0 0 C0.66 1.32 1.32 2.64 2 4 C0.68 5.65 -0.64 7.3 -2 9 C-2.66 7.68 -3.32 6.36 -4 5 C-2.68 3.35 -1.36 1.7 0 0 Z " fill="#32373C" transform="translate(376,328)"/>
<path d="M0 0 C3.465 1.485 3.465 1.485 7 3 C7 3.99 7 4.98 7 6 C5.68 6 4.36 6 3 6 C3 5.34 3 4.68 3 4 C2.34 4 1.68 4 1 4 C0.67 2.68 0.34 1.36 0 0 Z " fill="#DFE6EC" transform="translate(556,313)"/>
<path d="M0 0 C1.32 0.33 2.64 0.66 4 1 C4.33 2.65 4.66 4.3 5 6 C2.525 5.01 2.525 5.01 0 4 C0 2.68 0 1.36 0 0 Z " fill="#E8EFF4" transform="translate(552,312)"/>
<path d="M0 0 C3.16115776 1.36983503 3.9927092 1.9890638 6 5 C4.68 5.33 3.36 5.66 2 6 C1.67 5.01 1.34 4.02 1 3 C0.34 3 -0.32 3 -1 3 C-0.67 2.01 -0.34 1.02 0 0 Z " fill="#E6EBED" transform="translate(635,310)"/>
<path d="M0 0 C3 2 3 2 4 5 C2.02 5.99 0.04 6.98 -2 8 C-2 7.01 -2 6.02 -2 5 C-1.34 5 -0.68 5 0 5 C-0.2784375 4.0409375 -0.2784375 4.0409375 -0.5625 3.0625 C-0.7790625 2.0415625 -0.7790625 2.0415625 -1 1 C-0.67 0.67 -0.34 0.34 0 0 Z " fill="#E4E9EA" transform="translate(416,288)"/>
<path d="M0 0 C0.86625 0.3403125 0.86625 0.3403125 1.75 0.6875 C1.09 2.0075 0.43 3.3275 -0.25 4.6875 C-2.23 4.0275 -4.21 3.3675 -6.25 2.6875 C-2.80384615 -0.38942308 -2.80384615 -0.38942308 0 0 Z " fill="#DFE9EB" transform="translate(431.25,263.3125)"/>
<path d="M0 0 C-2.76223278 2.76223278 -5.20706617 2.57856291 -9 3 C-9 2.01 -9 1.02 -9 0 C-3.375 -1.125 -3.375 -1.125 0 0 Z " fill="#F2F7FA" transform="translate(607,219)"/>
<path d="M0 0 C1.5 1.1875 1.5 1.1875 3 3 C3.1875 5.6875 3.1875 5.6875 3 8 C2.01 8.33 1.02 8.66 0 9 C-0.66 7.68 -1.32 6.36 -2 5 C-1.34 4.67 -0.68 4.34 0 4 C0 2.68 0 1.36 0 0 Z " fill="#2E3338" transform="translate(397,681)"/>
<path d="M0 0 C0.66 0.33 1.32 0.66 2 1 C1.42655063 3.86724686 1.1385485 4.8614515 -1 7 C-3.125 6.625 -3.125 6.625 -5 6 C-4.01 6 -3.02 6 -2 6 C-1.855625 5.195625 -1.71125 4.39125 -1.5625 3.5625 C-1 1 -1 1 0 0 Z " fill="#DEE3E8" transform="translate(470,638)"/>
<path d="M0 0 C0.99 0.33 1.98 0.66 3 1 C2.34 2.98 1.68 4.96 1 7 C0.01 7 -0.98 7 -2 7 C-2 5.68 -2 4.36 -2 3 C-1.34 3 -0.68 3 0 3 C0 2.01 0 1.02 0 0 Z " fill="#2C353A" transform="translate(463,632)"/>
<path d="M0 0 C0 2.62113708 -0.31292445 4.50935112 -1 7 C-1.66 6.67 -2.32 6.34 -3 6 C-3 6.66 -3 7.32 -3 8 C-3.99 7.67 -4.98 7.34 -6 7 C-4.02 4.69 -2.04 2.38 0 0 Z " fill="#3B4248" transform="translate(327,463)"/>
<path d="M0 0 C0.99 0 1.98 0 3 0 C3.33 2.64 3.66 5.28 4 8 C3.34 7.01 2.68 6.02 2 5 C1.01 4.67 0.02 4.34 -1 4 C-0.67 2.68 -0.34 1.36 0 0 Z " fill="#E3E7E8" transform="translate(683,448)"/>
<path d="M0 0 C0.66 0 1.32 0 2 0 C2 1.32 2 2.64 2 4 C1.01 4 0.02 4 -1 4 C-1.33 5.65 -1.66 7.3 -2 9 C-2.66 8.67 -3.32 8.34 -4 8 C-2.68 5.36 -1.36 2.72 0 0 Z " fill="#353A41" transform="translate(353,362)"/>
<path d="M0 0 C0.33 0.99 0.66 1.98 1 3 C-0.93254772 5.0245738 -2.63158688 6.42105792 -5 8 C-5.33 6.35 -5.66 4.7 -6 3 C-4.02 2.67 -2.04 2.34 0 2 C0 1.34 0 0.68 0 0 Z " fill="#E4EAEA" transform="translate(312,299)"/>
<path d="M0 0 C1.98 1.65 3.96 3.3 6 5 C5.34 5.66 4.68 6.32 4 7 C3.01 6.67 2.02 6.34 1 6 C0.67 4.02 0.34 2.04 0 0 Z " fill="#3B4043" transform="translate(658,264)"/>
<path d="M0 0 C2.05078125 0.03255208 4.1015625 0.06510417 6.15234375 0.09765625 C6.15234375 0.75765625 6.15234375 1.41765625 6.15234375 2.09765625 C3.33984375 2.72265625 3.33984375 2.72265625 0.15234375 3.09765625 C-0.83765625 2.43765625 -1.82765625 1.77765625 -2.84765625 1.09765625 C-1.84765625 0.09765625 -1.84765625 0.09765625 0 0 Z " fill="#D9E3E5" transform="translate(478.84765625,248.90234375)"/>
<path d="M0 0 C2.475 0.495 2.475 0.495 5 1 C5 1.66 5 2.32 5 3 C5.66 3 6.32 3 7 3 C7 3.66 7 4.32 7 5 C4.69 4.67 2.38 4.34 0 4 C0 2.68 0 1.36 0 0 Z " fill="#30383A" transform="translate(536,248)"/>
<path d="M0 0 C2.97 0.495 2.97 0.495 6 1 C3.61426621 2.89213369 1.92824652 4.02391783 -1 5 C-1.33 4.34 -1.66 3.68 -2 3 C-1.34 2.01 -0.68 1.02 0 0 Z " fill="#E3EBEB" transform="translate(390,225)"/>
<path d="M0 0 C0.99 0.33 1.98 0.66 3 1 C2.01 1.495 2.01 1.495 1 2 C1 2.66 1 3.32 1 4 C0.34 4 -0.32 4 -1 4 C-1 4.66 -1 5.32 -1 6 C-0.34 6.33 0.32 6.66 1 7 C0.01 7 -0.98 7 -2 7 C-2.33 6.34 -2.66 5.68 -3 5 C-1.5625 2.375 -1.5625 2.375 0 0 Z " fill="#F2F7FA" transform="translate(526,789)"/>
<path d="M0 0 C3.3 0 6.6 0 10 0 C10 0.33 10 0.66 10 1 C7.69 1.33 5.38 1.66 3 2 C2.67 2.99 2.34 3.98 2 5 C1.34 5 0.68 5 0 5 C0 3.35 0 1.7 0 0 Z " fill="#1A2228" transform="translate(550,631)"/>
<path d="M0 0 C2.35953094 2.35953094 2.49141413 3.77895617 3 7 C1.0625 6.6875 1.0625 6.6875 -1 6 C-1.33 5.01 -1.66 4.02 -2 3 C-1.34 3 -0.68 3 0 3 C0 2.01 0 1.02 0 0 Z " fill="#E4E9EC" transform="translate(524,406)"/>
<path d="M0 0 C2.64 0.33 5.28 0.66 8 1 C7.67 2.32 7.34 3.64 7 5 C4.69 4.01 2.38 3.02 0 2 C0 1.34 0 0.68 0 0 Z " fill="#E7EBED" transform="translate(562,281)"/>
<path d="M0 0 C2.31 0.66 4.62 1.32 7 2 C6.01 3.485 6.01 3.485 5 5 C3.68 4.67 2.36 4.34 1 4 C0.67 2.68 0.34 1.36 0 0 Z " fill="#2E3337" transform="translate(424,721)"/>
<path d="M0 0 C0.99 0.33 1.98 0.66 3 1 C3 2.65 3 4.3 3 6 C2.34 5.34 1.68 4.68 1 4 C0.01 4 -0.98 4 -2 4 C-1.34 2.68 -0.68 1.36 0 0 Z " fill="#DCDFE2" transform="translate(526,624)"/>
<path d="M0 0 C1.65 0 3.3 0 5 0 C4.67 2.31 4.34 4.62 4 7 C2 5.1875 2 5.1875 0 3 C0 2.01 0 1.02 0 0 Z " fill="#2B3238" transform="translate(427,615)"/>
<path d="M0 0 C0.66 0 1.32 0 2 0 C2.99 1.98 3.98 3.96 5 6 C3.125 5.75 3.125 5.75 1 5 C-0.25 2.9375 -0.25 2.9375 -1 1 C-0.67 0.67 -0.34 0.34 0 0 Z " fill="#E4E9EB" transform="translate(324,591)"/>
<path d="M0 0 C1.32 0 2.64 0 4 0 C3.67 1.65 3.34 3.3 3 5 C1.68 4.34 0.36 3.68 -1 3 C-0.67 2.01 -0.34 1.02 0 0 Z " fill="#F1F6FB" transform="translate(691,569)"/>
<path d="M0 0 C2.64 0.66 5.28 1.32 8 2 C5.36095629 3.41377341 2.92879371 4.37240135 0 5 C0 3.35 0 1.7 0 0 Z " fill="#DDE2E5" transform="translate(531,417)"/>
<path d="M0 0 C0.66 0.33 1.32 0.66 2 1 C2.625 4.0625 2.625 4.0625 3 7 C1.02 7.33 -0.96 7.66 -3 8 C-2.34 7.01 -1.68 6.02 -1 5 C-0.61500109 3.34450469 -0.27206865 1.6777567 0 0 Z " fill="#F7FAFD" transform="translate(388,385)"/>
<path d="M0 0 C0.66 0 1.32 0 2 0 C2.66 1.98 3.32 3.96 4 6 C3.01 6.495 3.01 6.495 2 7 C0.4375 5.1875 0.4375 5.1875 -1 3 C-0.67 2.01 -0.34 1.02 0 0 Z " fill="#E6EBEF" transform="translate(665,352)"/>
<path d="M0 0 C2.125 0.9375 2.125 0.9375 4 2 C3.67 2.66 3.34 3.32 3 4 C0.9375 4.625 0.9375 4.625 -1 5 C-1.33 3.68 -1.66 2.36 -2 1 C-1.34 0.67 -0.68 0.34 0 0 Z " fill="#293036" transform="translate(411,331)"/>
<path d="M0 0 C2 1 2 1 3 3 C0.69 4.32 -1.62 5.64 -4 7 C-3.43628586 3.73045798 -2.50037734 2.17424117 0 0 Z " fill="#DFE5E7" transform="translate(373,236)"/>
<path d="M0 0 C1.9375 0.375 1.9375 0.375 4 1 C4.33 1.66 4.66 2.32 5 3 C4.01 4.485 4.01 4.485 3 6 C1.68 5.01 0.36 4.02 -1 3 C-0.67 2.01 -0.34 1.02 0 0 Z " fill="#F3F8F9" transform="translate(385,678)"/>
<path d="M0 0 C0.99 0.33 1.98 0.66 3 1 C2.34 2.32 1.68 3.64 1 5 C0.67 4.67 0.34 4.34 0 4 C-0.33 4.66 -0.66 5.32 -1 6 C-0.34 6.33 0.32 6.66 1 7 C0.01 7 -0.98 7 -2 7 C-1.125 1.125 -1.125 1.125 0 0 Z " fill="#2F363C" transform="translate(428,635)"/>
<path d="M0 0 C3.875 1.75 3.875 1.75 5 4 C2.69 4 0.38 4 -2 4 C-2 3.34 -2 2.68 -2 2 C-1.34 2 -0.68 2 0 2 C0 1.34 0 0.68 0 0 Z " fill="#1B2326" transform="translate(567,581)"/>
<path d="M0 0 C0.66 0.99 1.32 1.98 2 3 C1.34 3 0.68 3 0 3 C0.33 3.99 0.66 4.98 1 6 C0.01 6.495 0.01 6.495 -1 7 C-1.66 5.35 -2.32 3.7 -3 2 C-2.01 1.34 -1.02 0.68 0 0 Z " fill="#393E41" transform="translate(538,578)"/>
<path d="M0 0 C0.66 0.33 1.32 0.66 2 1 C1.67 1.99 1.34 2.98 1 4 C0.34 4 -0.32 4 -1 4 C-1.33 4.66 -1.66 5.32 -2 6 C-2.99 4.68 -3.98 3.36 -5 2 C-2.625 0.9375 -2.625 0.9375 0 0 Z " fill="#2F373C" transform="translate(657,504)"/>
<path d="M0 0 C2.125 0.9375 2.125 0.9375 4 2 C3.01 3.485 3.01 3.485 2 5 C1.01 4.67 0.02 4.34 -1 4 C-1.33 3.01 -1.66 2.02 -2 1 C-1.34 0.67 -0.68 0.34 0 0 Z " fill="#2B373B" transform="translate(384,410)"/>
<path d="M0 0 C0.6875 1.8125 0.6875 1.8125 1 4 C-0.4375 5.75 -0.4375 5.75 -2 7 C-2.66 6.34 -3.32 5.68 -4 5 C-3.67 4.01 -3.34 3.02 -3 2 C-2.34 2 -1.68 2 -1 2 C-0.67 1.34 -0.34 0.68 0 0 Z " fill="#394144" transform="translate(420,364)"/>
<path d="M0 0 C3 2 3 2 4 5 C3.34 5.66 2.68 6.32 2 7 C0.4375 5.1875 0.4375 5.1875 -1 3 C-0.67 2.01 -0.34 1.02 0 0 Z " fill="#293036" transform="translate(330,352)"/>
<path d="M0 0 C1.32 1.32 2.64 2.64 4 4 C3.01 5.485 3.01 5.485 2 7 C1.67 6.01 1.34 5.02 1 4 C0.34 4 -0.32 4 -1 4 C-0.67 2.68 -0.34 1.36 0 0 Z " fill="#31363C" transform="translate(636,342)"/>
<path d="M0 0 C0.33 0.66 0.66 1.32 1 2 C1.99 2 2.98 2 4 2 C3.67 3.32 3.34 4.64 3 6 C1.35 4.35 -0.3 2.7 -2 1 C-1.34 0.67 -0.68 0.34 0 0 Z " fill="#3A3F44" transform="translate(595,338)"/>
<path d="M0 0 C0.66 0.33 1.32 0.66 2 1 C1.67 2.32 1.34 3.64 1 5 C-0.65 5 -2.3 5 -4 5 C-2.68 3.35 -1.36 1.7 0 0 Z " fill="#2F383B" transform="translate(381,323)"/>
<path d="M0 0 C0.33 0.99 0.66 1.98 1 3 C-1.1385485 5.1385485 -2.13275314 5.42655063 -5 6 C-2.25 1.125 -2.25 1.125 0 0 Z " fill="#293136" transform="translate(406,301)"/>
<path d="M0 0 C1.98 0.99 3.96 1.98 6 3 C5.01 3.495 5.01 3.495 4 4 C3.67 4.99 3.34 5.98 3 7 C2.67 6.34 2.34 5.68 2 5 C1.34 4.67 0.68 4.34 0 4 C0 2.68 0 1.36 0 0 Z " fill="#363B3F" transform="translate(584,293)"/>
<path d="M0 0 C0.99 0.33 1.98 0.66 3 1 C2.67 1.66 2.34 2.32 2 3 C1.01 3.33 0.02 3.66 -1 4 C-1.33 4.66 -1.66 5.32 -2 6 C-2 5.34 -2 4.68 -2 4 C-2.66 3.67 -3.32 3.34 -4 3 C-2.1875 1.4375 -2.1875 1.4375 0 0 Z " fill="#3C4145" transform="translate(362,248)"/>
</svg>

